<svg width="1024" height="1024" viewBox="0 0 1024 1024" fill="none" xmlns="http://www.w3.org/2000/svg">
<g clip-path="url(#clip0_102_915)">
<path d="M0 0C337.92 0 675.84 0 1024 0C1024 337.92 1024 675.84 1024 1024C686.08 1024 348.16 1024 0 1024C0 686.08 0 348.16 0 0Z" fill="#232726"/>
<path d="M0 0C337.92 0 675.84 0 1024 0C1024 337.92 1024 675.84 1024 1024C686.08 1024 348.16 1024 0 1024C0 686.08 0 348.16 0 0ZM219.188 113.625C218.365 113.877 217.542 114.13 216.694 114.39C192.392 122.146 171.893 134.932 154 153C153.245 153.709 152.489 154.418 151.711 155.148C140.564 165.773 132.09 178.378 125 192C124.664 192.636 124.327 193.272 123.981 193.927C119.697 202.132 116.298 210.428 113.688 219.312C113.457 220.08 113.227 220.848 112.99 221.639C108.425 238.18 107.559 254.944 107.626 272.001C107.623 274.147 107.619 276.294 107.614 278.441C107.603 284.282 107.611 290.123 107.622 295.965C107.631 302.286 107.623 308.608 107.617 314.93C107.608 326.578 107.612 338.226 107.624 349.874C107.634 360.635 107.639 371.396 107.637 382.157C107.637 382.873 107.637 383.589 107.637 384.326C107.637 387.232 107.636 390.139 107.636 393.045C107.632 420.263 107.645 447.48 107.666 474.698C107.684 498.849 107.69 523 107.684 547.151C107.684 548.702 107.684 550.254 107.683 551.805C107.683 552.572 107.683 553.339 107.683 554.13C107.682 557.991 107.681 561.853 107.68 565.715C107.68 566.476 107.68 567.238 107.68 568.023C107.676 588.242 107.681 608.461 107.69 628.68C107.691 630.857 107.692 633.033 107.693 635.21C107.693 636.654 107.694 638.098 107.694 639.541C107.699 649.584 107.699 659.627 107.697 669.669C107.695 682.612 107.699 695.554 107.714 708.496C107.722 714.732 107.726 720.968 107.721 727.204C107.717 732.919 107.722 738.635 107.735 744.35C107.738 746.41 107.737 748.471 107.733 750.531C107.706 765.211 108.433 779.509 111.75 793.875C111.919 794.613 112.088 795.352 112.263 796.113C115.716 810.618 120.874 823.92 128 837C128.566 838.058 129.132 839.117 129.715 840.207C146.99 871.222 178.498 898.051 212.798 908.375C219.646 910.32 226.547 912.072 233.461 913.766C234.335 913.98 235.21 914.194 236.111 914.415C242.843 915.778 249.38 916.147 256.224 916.134C257.124 916.137 258.024 916.139 258.952 916.141C261.965 916.148 264.979 916.148 267.993 916.147C270.177 916.15 272.36 916.154 274.544 916.158C280.543 916.168 286.543 916.172 292.542 916.175C299.014 916.179 305.485 916.188 311.956 916.197C326.845 916.216 341.734 916.226 356.623 916.234C363.986 916.239 371.349 916.244 378.712 916.249C403.933 916.267 429.153 916.282 454.374 916.289C455.957 916.29 457.539 916.29 459.122 916.291C459.907 916.291 460.691 916.291 461.5 916.292C465.476 916.293 469.452 916.294 473.427 916.295C474.611 916.296 474.611 916.296 475.818 916.296C501.387 916.304 526.955 916.327 552.523 916.36C579.576 916.394 606.628 916.414 633.681 916.417C636.654 916.417 639.627 916.418 642.6 916.418C643.332 916.419 644.064 916.419 644.818 916.419C656.571 916.421 668.324 916.437 680.076 916.457C691.903 916.478 703.729 916.483 715.556 916.474C721.956 916.469 728.356 916.471 734.756 916.49C740.626 916.508 746.496 916.507 752.365 916.491C754.478 916.489 756.592 916.493 758.705 916.505C771.978 916.575 784.136 915.323 797 912C798.079 911.725 799.157 911.451 800.269 911.168C802.657 910.539 805.015 909.853 807.375 909.125C808.206 908.871 809.037 908.617 809.893 908.355C816.903 906.148 823.465 903.369 830 900C831.222 899.398 832.445 898.796 833.668 898.195C846.666 891.675 857.438 882.973 868 873C868.86 872.216 869.72 871.433 870.605 870.625C895.064 847.472 913.643 810.795 915.092 776.836C915.129 774.474 915.135 772.114 915.129 769.752C915.13 768.849 915.132 767.947 915.134 767.017C915.139 763.994 915.136 760.971 915.134 757.949C915.136 755.759 915.138 753.569 915.141 751.379C915.147 745.362 915.147 739.346 915.145 733.329C915.145 726.839 915.151 720.35 915.155 713.86C915.164 701.145 915.167 688.43 915.167 675.715C915.168 665.378 915.17 655.04 915.173 644.703C915.174 641.726 915.175 638.749 915.175 635.772C915.176 635.032 915.176 634.292 915.176 633.53C915.182 612.713 915.186 591.896 915.186 571.079C915.186 570.295 915.186 569.51 915.186 568.701C915.186 564.724 915.186 560.747 915.185 556.769C915.185 555.98 915.185 555.19 915.185 554.376C915.185 552.779 915.185 551.181 915.185 549.584C915.185 524.743 915.192 499.903 915.206 475.062C915.221 447.144 915.23 419.225 915.229 391.306C915.229 388.326 915.229 385.347 915.229 382.367C915.229 381.634 915.229 380.9 915.229 380.144C915.229 368.358 915.235 356.571 915.244 344.784C915.252 332.929 915.253 321.073 915.247 309.218C915.243 302.799 915.243 296.381 915.252 289.963C915.26 284.081 915.258 278.199 915.25 272.316C915.248 270.195 915.25 268.074 915.255 265.953C915.294 250.068 914.642 234.776 910.062 219.438C909.762 218.429 909.462 217.421 909.153 216.383C903.488 198.25 894.784 181.866 883 167C882.255 166.059 882.255 166.059 881.496 165.099C861.749 140.492 835.359 123.169 805.25 113.812C804.502 113.575 803.753 113.337 802.982 113.091C787.061 108.353 771.28 107.562 754.791 107.619C752.597 107.616 750.404 107.611 748.21 107.605C742.229 107.592 736.248 107.598 730.268 107.608C723.799 107.615 717.331 107.604 710.863 107.596C698.94 107.583 687.017 107.584 675.094 107.593C664.078 107.6 653.062 107.602 642.046 107.599C641.313 107.598 640.581 107.598 639.826 107.598C636.852 107.597 633.879 107.596 630.905 107.595C603.045 107.586 575.185 107.594 547.325 107.61C522.604 107.625 497.883 107.623 473.161 107.609C445.349 107.593 417.536 107.586 389.724 107.596C386.756 107.597 383.788 107.598 380.821 107.599C380.09 107.599 379.359 107.599 378.607 107.599C367.6 107.603 356.593 107.599 345.586 107.591C333.065 107.583 320.544 107.585 308.022 107.601C301.638 107.609 295.254 107.612 288.871 107.602C283.019 107.593 277.167 107.598 271.315 107.614C269.206 107.617 267.098 107.616 264.989 107.608C249.212 107.558 234.34 108.947 219.188 113.625Z" fill="#EFEFEF"/>
<path d="M573 402C573.766 402.556 574.531 403.111 575.32 403.684C577.597 405.401 579.804 407.18 582 409C582.79 409.643 583.58 410.286 584.395 410.949C604.317 427.923 617.974 453.351 620.219 479.562C621.718 512.952 609.39 538.592 589 564C576.31 579.893 567.138 596.553 563.987 616.848C563.196 621.804 563.196 621.804 561 624C560.734 626.503 560.686 628.976 560.637 631.492C559.733 635.05 558.003 635.971 555 638C552.154 638.758 552.154 638.758 549.051 639.125C547.906 639.272 546.76 639.419 545.581 639.57C544.399 639.712 543.217 639.854 542 640C539.722 640.328 537.444 640.661 535.168 641C532.841 641.334 530.514 641.668 528.187 642C526.958 642.176 525.728 642.352 524.461 642.533C516.939 643.602 509.415 644.595 501.871 645.496C498.874 645.886 495.895 646.317 492.91 646.785C492.023 646.924 491.136 647.062 490.223 647.205C488.509 647.475 486.797 647.752 485.086 648.035C471.124 650.243 471.124 650.243 466.437 647.5C464.72 644.514 464.484 642.391 464.371 639C465.386 635.774 467.163 634.749 470 633C472.651 632.464 475.016 632.129 477.687 631.937C479.201 631.796 480.714 631.65 482.227 631.5C483.008 631.424 483.79 631.348 484.595 631.27C489.348 630.737 494.049 629.878 498.759 629.052C499.458 628.931 500.158 628.809 500.879 628.684C501.483 628.576 502.087 628.468 502.709 628.357C506.13 627.824 509.564 627.42 513 627C512.408 626.999 511.815 626.997 511.205 626.996C505.04 626.976 498.876 626.922 492.712 626.847C490.411 626.824 488.11 626.81 485.81 626.804C482.503 626.795 479.197 626.754 475.891 626.707C474.861 626.711 473.832 626.715 472.772 626.719C465.662 626.574 465.662 626.574 462.401 623.747C461.106 621.208 460.253 619.123 459.691 616.34C459.505 615.47 459.318 614.6 459.126 613.704C458.94 612.791 458.754 611.878 458.562 610.937C454.624 593.276 447.121 578.52 435.235 564.908C426.11 554.453 418.648 543.612 412.894 530.961C412.27 529.593 411.627 528.234 410.969 526.883C400.524 504.837 401.761 477.785 409.25 455.109C418.206 430.785 437.375 406.79 461.195 395.789C461.791 395.529 462.386 395.268 463 395C464.031 394.526 465.062 394.051 466.125 393.562C467.412 393.031 468.705 392.512 470 392C471.479 391.41 471.479 391.41 472.988 390.809C505.073 378.636 544.74 381.459 573 402Z" fill="#273837"/>
<path d="M227.5 688.562C232.075 692.265 234.728 696.971 235.499 702.725C235.519 704.072 235.518 705.42 235.498 706.768C235.504 707.51 235.509 708.253 235.515 709.017C235.524 710.617 235.525 712.217 235.517 713.817C235.504 716.352 235.515 718.887 235.533 721.422C235.559 725.89 235.565 730.357 235.563 734.825C235.561 741.979 235.575 749.132 235.619 756.285C235.629 758.777 235.62 761.268 235.61 763.76C235.616 765.294 235.623 766.828 235.631 768.362C235.623 769.049 235.616 769.736 235.608 770.445C235.671 776.53 237.508 780.362 241.563 784.812C245.401 788.257 248.129 788.146 253.077 788.142C254.17 788.147 254.17 788.147 255.285 788.152C256.871 788.16 258.456 788.165 260.042 788.169C262.556 788.176 265.071 788.191 267.585 788.21C274.735 788.262 281.885 788.31 289.036 788.326C293.408 788.336 297.781 788.365 302.153 788.407C303.816 788.419 305.478 788.425 307.14 788.422C324.286 788.405 324.286 788.405 332.094 794.684C336.189 799.791 336.899 804.311 336.59 810.801C335.45 816.985 332.317 821.235 327.375 825C322.768 826.94 318.815 827.13 313.804 827.145C313.086 827.149 312.369 827.152 311.629 827.155C309.259 827.165 306.89 827.167 304.52 827.168C302.865 827.171 301.211 827.174 299.557 827.178C296.088 827.184 292.618 827.186 289.149 827.185C284.722 827.185 280.295 827.199 275.868 827.216C272.45 827.227 269.031 827.229 265.612 827.229C263.981 827.23 262.35 827.234 260.719 827.242C249.31 827.291 239.42 826.71 229.063 821.437C228.028 820.913 228.028 820.913 226.973 820.379C213.778 813.412 204.277 801.908 199 788C196.536 778.527 196.638 768.891 196.594 759.18C196.588 758.34 196.583 757.501 196.577 756.637C196.547 752.204 196.528 747.772 196.52 743.339C196.509 738.785 196.46 734.233 196.404 729.679C196.366 726.151 196.356 722.624 196.353 719.096C196.347 717.417 196.331 715.739 196.305 714.061C196.074 698.32 196.074 698.32 201.32 691.644C208.102 685.006 219.342 682.796 227.5 688.562Z" fill="#15A987"/>
<path d="M253.455 196.725C254.176 196.72 254.897 196.715 255.64 196.71C258.009 196.696 260.377 196.697 262.746 196.699C264.402 196.695 266.058 196.691 267.715 196.686C271.18 196.679 274.646 196.679 278.112 196.684C282.541 196.69 286.97 196.673 291.4 196.65C294.818 196.635 298.237 196.634 301.656 196.637C303.288 196.637 304.921 196.632 306.554 196.622C308.841 196.609 311.128 196.616 313.416 196.628C314.714 196.627 316.013 196.626 317.351 196.626C324.114 197.319 329.17 200.17 334 205C336.732 209.827 338.087 214.492 337 220C334.433 226.4 331.086 231.008 324.785 234.08C321.384 235.203 318.517 235.266 314.934 235.287C314.242 235.294 313.551 235.301 312.838 235.308C311.342 235.321 309.847 235.33 308.351 235.335C305.979 235.344 303.608 235.364 301.237 235.388C296.2 235.436 291.162 235.469 286.125 235.5C280.292 235.536 274.459 235.578 268.626 235.636C266.298 235.656 263.97 235.664 261.642 235.672C260.203 235.685 258.764 235.699 257.325 235.713C256.076 235.72 254.828 235.727 253.541 235.735C247.279 236.204 242.547 237.583 238 242C235.563 245.62 235.72 249.275 235.745 253.487C235.739 254.61 235.739 254.61 235.734 255.755C235.727 257.378 235.724 259.001 235.726 260.624C235.726 263.197 235.714 265.77 235.697 268.343C235.65 275.659 235.626 282.975 235.619 290.291C235.614 294.77 235.59 299.248 235.554 303.726C235.544 305.428 235.542 307.13 235.547 308.831C235.596 325.425 235.596 325.425 231 332C226.292 336.363 222.908 338.442 216.539 338.234C210.997 337.723 205.953 337.159 202.07 332.867C198.249 327.18 196.849 323.302 196.839 316.48C196.834 315.704 196.829 314.928 196.824 314.129C196.809 311.553 196.802 308.978 196.797 306.402C196.791 304.611 196.785 302.819 196.78 301.027C196.769 297.264 196.763 293.5 196.76 289.736C196.754 284.93 196.73 280.125 196.702 275.319C196.683 271.613 196.678 267.908 196.676 264.203C196.673 262.432 196.665 260.662 196.652 258.891C196.575 247.732 196.852 238.735 203 229C203.557 227.422 203.557 227.422 204.125 225.812C207.633 217.4 215.589 210.945 223 206C223.971 205.306 223.971 205.306 224.961 204.598C229.109 201.769 232.773 200.295 237.726 199.457C240.106 199.043 240.106 199.043 242.676 197.989C246.422 196.874 249.549 196.739 253.455 196.725Z" fill="#084CB3"/>
<path d="M709.187 196.807C709.916 196.799 710.645 196.791 711.396 196.782C713.812 196.757 716.228 196.741 718.645 196.727C719.888 196.719 719.888 196.719 721.158 196.71C725.557 196.684 729.956 196.664 734.355 196.65C737.974 196.637 741.592 196.609 745.211 196.568C749.597 196.518 753.984 196.494 758.371 196.487C760.031 196.48 761.691 196.465 763.351 196.441C782.164 196.183 798.563 201.884 812.422 215.109C824.899 229.098 827.636 245.775 827.566 263.859C827.572 265.542 827.578 267.224 827.585 268.907C827.596 272.406 827.591 275.905 827.576 279.405C827.559 283.865 827.583 288.325 827.618 292.785C827.64 296.25 827.638 299.714 827.63 303.178C827.629 304.822 827.636 306.466 827.651 308.11C827.72 317.179 827.695 325.412 822 333C817.548 337.357 813.572 338.33 807.375 338.562C800.625 338.282 797.371 336.503 792.75 331.625C789.278 326.417 788.751 321.625 788.745 315.453C788.741 314.722 788.737 313.992 788.734 313.238C788.727 311.661 788.724 310.083 788.726 308.505C788.727 306.003 788.714 303.501 788.697 300.999C788.65 293.889 788.626 286.779 788.619 279.669C788.614 275.311 788.59 270.954 788.554 266.596C788.544 264.941 788.542 263.286 788.547 261.632C788.554 259.313 788.537 256.995 788.514 254.676C788.511 253.359 788.508 252.043 788.506 250.687C787.819 245.678 786.372 242.004 782.45 238.69C778.215 235.977 774.249 235.444 769.264 235.549C768.155 235.548 768.155 235.548 767.024 235.547C765.431 235.548 763.837 235.557 762.244 235.575C759.717 235.602 757.19 235.602 754.662 235.595C747.48 235.579 740.299 235.613 733.117 235.66C728.713 235.687 724.309 235.685 719.904 235.666C718.234 235.665 716.563 235.675 714.892 235.697C699.129 235.907 699.129 235.907 693.383 230.588C688.083 224.502 687.335 220.075 687.621 212.027C688.23 207.166 690.007 204.653 693.719 201.574C698.892 197.683 702.657 196.871 709.187 196.807Z" fill="#108E9C"/>
<path d="M816.312 687.063C820.932 690.393 824.864 694.667 827 700C827.21 702.479 827.314 704.849 827.322 707.329C827.337 708.427 827.337 708.427 827.352 709.548C827.382 711.972 827.395 714.396 827.406 716.82C827.415 718.072 827.415 718.072 827.423 719.349C827.453 723.779 827.472 728.208 827.48 732.638C827.491 737.166 827.539 741.692 827.596 746.219C827.634 749.739 827.644 753.258 827.647 756.778C827.653 758.443 827.669 760.109 827.696 761.774C827.966 779.996 823.369 797.046 810.75 810.75C801.998 818.844 792.263 822.759 781 826C780.423 826.18 779.845 826.36 779.25 826.546C776.059 827.19 772.966 827.17 769.712 827.209C768.985 827.219 768.257 827.228 767.508 827.238C765.106 827.268 762.703 827.29 760.301 827.309C759.477 827.315 758.654 827.322 757.805 827.329C753.444 827.361 749.083 827.386 744.722 827.405C741.124 827.423 737.527 827.458 733.93 827.508C729.575 827.568 725.22 827.599 720.864 827.608C719.211 827.617 717.557 827.636 715.904 827.665C700.344 827.928 700.344 827.928 693.602 822.651C689.556 818.483 687.256 813.613 686.688 807.813C687.148 802.19 688.756 798.049 692.977 794.195C698.238 790.197 701.482 788.853 708.093 788.858C708.823 788.855 709.553 788.851 710.306 788.848C711.895 788.84 713.483 788.835 715.072 788.831C717.591 788.824 720.109 788.809 722.627 788.79C729.788 788.738 736.95 788.69 744.111 788.674C748.49 788.664 752.869 788.635 757.248 788.593C758.914 788.581 760.58 788.575 762.246 788.578C764.585 788.58 766.922 788.558 769.26 788.53C770.284 788.54 770.284 788.54 771.328 788.55C776.678 788.447 779.684 786.95 784 784C789.207 777.162 788.517 769.393 788.425 761.169C788.398 758.65 788.398 756.131 788.405 753.611C788.421 746.453 788.387 739.296 788.34 732.138C788.313 727.745 788.315 723.353 788.334 718.961C788.335 717.296 788.325 715.632 788.303 713.967C788.093 698.3 788.093 698.3 793.4 691.606C799.881 685.103 807.619 684.274 816.312 687.063Z" fill="#2BD664"/>
<path d="M573 402C573.766 402.556 574.531 403.111 575.32 403.684C577.597 405.401 579.804 407.18 582 409C582.79 409.643 583.58 410.286 584.395 410.949C604.317 427.923 617.974 453.351 620.219 479.562C621.718 512.952 609.39 538.592 589 564C576.31 579.893 567.138 596.553 563.987 616.848C563.196 621.804 563.196 621.804 561 624C560.734 626.503 560.686 628.976 560.637 631.492C559.733 635.05 558.003 635.971 555 638C552.154 638.758 552.154 638.758 549.051 639.125C547.906 639.272 546.76 639.419 545.581 639.57C544.399 639.712 543.217 639.854 542 640C539.722 640.328 537.444 640.661 535.168 641C532.841 641.334 530.514 641.668 528.187 642C526.958 642.176 525.728 642.352 524.461 642.533C516.939 643.602 509.415 644.595 501.871 645.496C498.874 645.886 495.895 646.317 492.91 646.785C492.023 646.924 491.136 647.062 490.223 647.205C488.509 647.475 486.797 647.752 485.086 648.035C471.124 650.243 471.124 650.243 466.437 647.5C464.72 644.514 464.484 642.391 464.371 639C465.386 635.774 467.163 634.749 470 633C472.651 632.464 475.016 632.129 477.687 631.937C479.201 631.796 480.714 631.65 482.227 631.5C483.008 631.424 483.79 631.348 484.595 631.27C489.348 630.737 494.049 629.878 498.759 629.052C499.458 628.931 500.158 628.809 500.879 628.684C501.483 628.576 502.087 628.468 502.709 628.357C506.13 627.824 509.564 627.42 513 627C512.408 626.999 511.815 626.997 511.205 626.996C505.04 626.976 498.876 626.922 492.712 626.847C490.411 626.824 488.11 626.81 485.81 626.804C482.503 626.795 479.197 626.754 475.891 626.707C474.861 626.711 473.832 626.715 472.772 626.719C465.662 626.574 465.662 626.574 462.401 623.747C461.106 621.208 460.253 619.123 459.691 616.34C459.505 615.47 459.318 614.6 459.126 613.704C458.94 612.791 458.754 611.878 458.562 610.937C454.624 593.276 447.121 578.52 435.235 564.908C426.11 554.453 418.648 543.612 412.894 530.961C412.27 529.593 411.627 528.234 410.969 526.883C400.524 504.837 401.761 477.785 409.25 455.109C418.206 430.785 437.375 406.79 461.195 395.789C461.791 395.529 462.386 395.268 463 395C464.031 394.526 465.062 394.051 466.125 393.562C467.412 393.031 468.705 392.512 470 392C471.479 391.41 471.479 391.41 472.988 390.809C505.073 378.636 544.74 381.459 573 402ZM435.416 428.341C421.191 445.003 413.825 465.551 413.812 487.25C413.8 488.331 413.788 489.413 413.775 490.527C413.763 497.278 414.392 503.447 416 510C416.391 511.721 416.391 511.721 416.789 513.477C420.831 528.7 428.021 540.99 438 553C454.615 573.056 464.836 592.181 470 618C497.72 618 525.44 618 554 618C554.99 613.71 555.98 609.42 557 605C562.266 585.3 572.426 569.433 585.279 553.786C604.419 530.463 611.829 506.001 610 476C606.902 450.687 592.023 428.968 572.605 413.035C528.744 380.957 471.699 388.714 435.416 428.341Z" fill="#EDF6F6"/>
<path d="M106 239C106.99 239.66 107.98 240.32 109 241C109.297 243.941 109.396 246.673 109.369 249.617C109.373 250.524 109.376 251.432 109.38 252.366C109.388 255.441 109.374 258.515 109.361 261.589C109.362 263.802 109.365 266.014 109.369 268.227C109.375 274.334 109.363 280.44 109.348 286.547C109.337 292.448 109.339 298.349 109.341 304.25C109.345 316.325 109.335 328.401 109.317 340.476C109.299 352.437 109.288 364.398 109.285 376.359C109.284 377.102 109.284 377.845 109.284 378.611C109.283 382.384 109.282 386.156 109.281 389.929C109.275 416.671 109.255 443.413 109.226 470.155C109.199 496.139 109.178 522.122 109.165 548.106C109.164 548.907 109.164 549.707 109.164 550.532C109.16 558.571 109.156 566.61 109.152 574.65C109.145 591.027 109.136 607.405 109.127 623.783C109.127 624.536 109.126 625.289 109.126 626.065C109.098 676.377 109.051 726.688 109 777C108.67 777 108.34 777 108 777C108 775.35 108 773.7 108 772C107.34 772 106.68 772 106 772C103.518 769.518 103.76 768.085 103.736 764.697C103.741 763.951 103.746 763.204 103.751 762.435C103.749 761.641 103.746 760.848 103.743 760.03C103.737 757.343 103.745 754.655 103.753 751.968C103.751 750.033 103.749 748.098 103.745 746.163C103.739 740.824 103.745 735.485 103.753 730.147C103.76 724.397 103.755 718.648 103.751 712.899C103.746 701.627 103.752 690.356 103.761 679.085C103.772 665.972 103.772 652.859 103.771 639.747C103.771 615.651 103.781 591.555 103.796 567.459C103.809 545.446 103.815 523.432 103.815 501.419C103.815 500.006 103.815 498.593 103.815 497.179C103.815 496.131 103.815 496.131 103.815 495.062C103.814 491.545 103.814 488.028 103.814 484.511C103.814 483.47 103.814 483.47 103.814 482.408C103.814 460.092 103.821 437.776 103.829 415.459C103.832 406.309 103.833 397.158 103.833 388.007C103.834 376.863 103.838 365.719 103.848 354.574C103.852 348.883 103.855 343.192 103.854 337.501C103.853 332.298 103.856 327.096 103.864 321.894C103.865 320.004 103.865 318.115 103.864 316.225C103.862 313.672 103.866 311.118 103.871 308.565C103.869 307.818 103.867 307.072 103.865 306.303C103.886 301.228 103.886 301.228 105 299C105.12 297.091 105.177 295.178 105.205 293.265C105.235 291.463 105.235 291.463 105.266 289.625C105.283 288.323 105.299 287.021 105.316 285.68C105.337 284.337 105.358 282.995 105.379 281.653C105.435 278.118 105.484 274.584 105.532 271.049C105.582 267.443 105.638 263.837 105.693 260.23C105.801 253.154 105.902 246.077 106 239Z" fill="#E2E2E1"/>
<path d="M559 645C560.592 648.184 560.391 651.535 560 655C558.07 658.048 555.317 658.809 552 660C550.096 660.358 548.18 660.652 546.258 660.895C545.124 661.043 543.991 661.191 542.823 661.344C541.602 661.499 540.382 661.653 539.125 661.813C536.51 662.157 533.895 662.504 531.281 662.856C530.606 662.946 529.931 663.037 529.236 663.13C520.42 664.33 511.647 665.79 502.872 667.249C496.598 668.286 490.322 669.275 484.023 670.148C482.844 670.313 481.665 670.477 480.451 670.646C470.869 671.629 470.869 671.629 467.062 668.875C465 666 465 666 464.5 662.938C465.069 659.596 465.486 658.271 468 656C472.679 654.473 477.302 653.538 482.164 652.816C482.83 652.716 483.496 652.616 484.182 652.513C486.329 652.192 488.477 651.877 490.625 651.563C492.118 651.34 493.611 651.118 495.104 650.895C504.011 649.57 512.923 648.277 521.841 647.03C525.985 646.447 530.12 645.828 534.25 645.152C535.111 645.012 535.971 644.872 536.858 644.727C538.473 644.461 540.087 644.19 541.701 643.914C554.402 641.817 554.402 641.817 559 645Z" fill="#50BCA6"/>
<path d="M556.996 665.848C559.932 668.322 560.956 669.774 561.687 673.563C561 677 561 677 559.121 679.082C554.72 681.786 550.433 682.355 545.375 683.125C543.827 683.377 543.827 683.377 542.248 683.635C535.467 684.71 528.69 685.52 521.855 686.137C516.578 686.644 511.357 687.385 506.125 688.23C505.424 688.343 504.723 688.456 504 688.573C500.487 689.142 496.976 689.725 493.467 690.324C476.126 693.225 476.126 693.225 470 692C467.507 689.373 466.583 687.556 466.625 683.938C467 680 467 680 468.256 678.318C470.315 676.762 471.731 676.397 474.269 675.973C475.143 675.822 476.016 675.672 476.915 675.518C477.871 675.367 478.827 675.217 479.812 675.063C480.82 674.896 481.828 674.729 482.866 674.557C492.445 673.007 502.065 671.748 511.689 670.509C521.169 669.28 530.6 667.842 540.021 666.219C552.808 664.069 552.808 664.069 556.996 665.848Z" fill="#24B785"/>
<path d="M534 625C542.333 625.808 550.631 626.154 559 626C559.33 625.34 559.66 624.68 560 624C560.136 625.581 560.232 627.165 560.312 628.75C560.371 629.632 560.429 630.513 560.488 631.422C560 634 560 634 557.841 636.091C554.714 638.192 552.763 638.686 549.051 639.125C547.906 639.272 546.76 639.419 545.581 639.57C544.399 639.712 543.217 639.854 542 640C539.722 640.328 537.444 640.661 535.168 641C532.841 641.334 530.514 641.668 528.188 642C526.958 642.176 525.728 642.352 524.461 642.533C516.939 643.602 509.415 644.595 501.871 645.496C498.874 645.886 495.895 646.317 492.91 646.785C492.023 646.924 491.136 647.062 490.223 647.205C488.509 647.475 486.797 647.752 485.086 648.035C471.124 650.243 471.124 650.243 466.438 647.5C464.72 644.514 464.484 642.391 464.371 639C465.386 635.774 467.163 634.749 470 633C472.651 632.464 475.016 632.13 477.688 631.938C479.207 631.794 480.727 631.647 482.246 631.496C483.42 631.382 483.42 631.382 484.617 631.265C488.521 630.831 492.381 630.171 496.25 629.5C496.999 629.372 497.748 629.244 498.519 629.112C499.984 628.861 501.449 628.609 502.914 628.357C506.043 627.822 509.177 627.311 512.312 626.812C513.299 626.654 514.285 626.495 515.301 626.332C518 626 518 626 520.703 626.016C523.092 626.15 523.092 626.15 525.438 624.938C528.709 623.741 530.587 624.378 534 625Z" fill="#90D3CC"/>
<path d="M484 695C502.81 695 521.62 695 541 695C537.282 702.437 531.307 706.313 523.688 709.273C520.204 710.215 516.581 710.552 513 711C513 739.38 513 767.76 513 797C514.32 797.33 515.64 797.66 517 798C519.916 800.187 520.883 801.312 521.5 804.938C520.89 808.673 519.613 810.31 517 813C513.821 814.589 511.504 814.416 508 814C504.777 811.119 503.243 809.191 502.375 804.938C503.214 800.994 504.877 799.469 508 797C508.99 797 509.98 797 511 797C511 768.62 511 740.24 511 711C508.03 710.67 505.06 710.34 502 710C494.917 707.42 488.733 703.916 484 698C484 697.01 484 696.02 484 695Z" fill="#1AB27E"/>
<path d="M405 465C405.99 465.495 405.99 465.495 407 466C406.856 466.55 406.711 467.101 406.562 467.668C403.267 482.429 404.455 498.205 407 513C405.68 513 404.36 513 403 513C402.67 511.68 402.34 510.36 402 509C380.408 508.883 358.816 508.795 337.224 508.741C327.199 508.715 317.174 508.68 307.149 508.623C298.413 508.573 289.678 508.541 280.942 508.53C276.314 508.523 271.687 508.508 267.06 508.471C262.707 508.437 258.355 508.427 254.002 508.434C252.402 508.433 250.802 508.423 249.202 508.404C247.022 508.379 244.843 508.385 242.663 508.399C241.441 508.394 240.22 508.39 238.962 508.385C235.797 508.695 235.797 508.695 234.209 511.475C233.61 512.725 233.61 512.725 233 514C229.282 515.859 225.049 515.568 221 515C217.663 512.378 217.139 510.693 216.312 506.562C217.154 502.204 218.513 500.665 221.996 498.047C224 497 224 497 227.625 496.75C231 498 231 498 233.279 501.031C235.347 503.613 235.793 503.951 239.208 504.754C240.427 504.756 241.647 504.758 242.903 504.759C243.585 504.769 244.268 504.778 244.97 504.787C247.25 504.811 249.527 504.792 251.806 504.773C253.442 504.781 255.078 504.792 256.714 504.805C261.152 504.834 265.589 504.825 270.027 504.81C274.666 504.801 279.305 504.825 283.945 504.846C292.728 504.881 301.51 504.884 310.294 504.877C320.294 504.871 330.293 504.898 340.293 504.929C360.862 504.99 381.431 505.009 402 505C401.976 503.342 401.976 503.342 401.952 501.651C401.898 497.553 401.864 493.455 401.835 489.357C401.82 487.583 401.8 485.808 401.774 484.034C401.737 481.485 401.72 478.936 401.707 476.387C401.692 475.593 401.676 474.799 401.66 473.981C401.658 468.455 401.658 468.455 403.518 465.976C404.252 465.493 404.252 465.493 405 465Z" fill="#1776A2"/>
<path d="M621 473C621.33 473 621.66 473 622 473C622.196 475.249 622.381 477.5 622.563 479.75C622.667 481.003 622.771 482.256 622.879 483.547C622.979 486.395 622.906 488.343 622 491C622.66 491 623.32 491 624 491C624.089 494.846 623.812 498.247 623 502C623 502.99 623 503.98 623 505C677.78 505 732.56 505 789 505C789.99 502.525 789.99 502.525 791 500C794.737 497.508 796.573 497.542 801 498C803.938 499.438 803.938 499.438 806 502C806.895 506.278 806.709 509.736 804.563 513.562C800.749 515.702 797.27 515.791 793 515C790.438 513.188 790.438 513.188 789 511C789 510.01 789 509.02 789 508C767.425 508.06 745.851 508.138 724.276 508.236C714.259 508.281 704.242 508.32 694.225 508.346C685.495 508.369 676.765 508.403 668.036 508.449C663.412 508.473 658.789 508.491 654.165 508.498C649.815 508.504 645.465 508.524 641.115 508.554C639.517 508.563 637.919 508.567 636.321 508.565C634.141 508.563 631.963 508.58 629.783 508.601C628.563 508.606 627.342 508.61 626.085 508.615C622.739 509.033 621.388 509.673 619 512C617.748 514.083 617.748 514.083 617 516C615.775 512.326 616.414 511.012 617.438 507.312C619.333 499.193 619.197 491.306 618.976 483.001C618.955 481.995 618.933 480.989 618.91 479.953C618.881 479.047 618.851 478.141 618.821 477.208C619 475 619 475 621 473Z" fill="#48BB93"/>
<path d="M464.562 308.106C465.367 308.401 466.171 308.696 467 309C468.027 309.317 469.055 309.634 470.113 309.961C473.854 311.614 476.219 312.97 479 316C481.022 321.987 480.936 328.997 479 335C476.084 338.362 473.152 339.594 469 341C468.01 341.66 467.02 342.32 466 343C459.11 342.44 452.634 340.245 448 335C446.469 328.811 447.324 322.264 448 316C450.219 314.628 452.448 313.278 454.687 311.938C455.313 311.548 455.939 311.158 456.584 310.756C459.326 309.134 461.329 307.973 464.562 308.106Z" fill="#6EAFCF"/>
<path d="M697.014 550.295C700.095 551.389 702.899 552.981 705.75 554.562C708.844 556.264 708.844 556.264 712 558C712 564.27 712 570.54 712 577C709.628 578.361 707.256 579.722 704.812 581.125C704.075 581.561 703.337 581.997 702.577 582.446C697.69 585.148 697.69 585.148 694.375 584.437C693.591 583.963 692.808 583.489 692 583C691.045 582.502 690.09 582.005 689.105 581.492C686.404 579.995 683.702 578.497 681 577C681 570.73 681 564.46 681 558C683.227 556.659 685.455 555.319 687.75 553.937C688.444 553.511 689.139 553.084 689.854 552.644C694.493 549.926 694.493 549.926 697.014 550.295Z" fill="#6ACDA4"/>
<path d="M443 575C444.376 576.29 445.708 577.627 447 579C447 579.66 447 580.32 447 581C445.391 582.516 445.391 582.516 443.25 584.25C439.124 587.756 436.169 591.296 434 596.312C433 598 433 598 431.063 598.562C430.382 598.707 429.701 598.851 429 599C427.978 599.978 426.98 600.981 426 602C425.285 602.393 424.571 602.787 423.835 603.192C420.121 605.56 417.205 608.46 414.083 611.548C413.407 612.208 412.732 612.869 412.036 613.549C409.812 615.729 407.597 617.916 405.383 620.105C404.625 620.854 403.867 621.602 403.086 622.374C399.081 626.332 395.082 630.297 391.088 634.267C386.96 638.367 382.807 642.44 378.648 646.509C375.454 649.643 372.28 652.797 369.111 655.957C367.588 657.468 366.058 658.972 364.52 660.467C362.372 662.559 360.254 664.678 358.141 666.805C357.18 667.723 357.18 667.723 356.199 668.659C352.966 671.859 352.966 671.859 351.908 676.107C352.199 678.083 352.595 680.044 353 682C351.403 685.194 349.977 687.225 347.188 689.438C343.782 690.313 341.387 689.891 338 689C335.132 686.986 333.384 685.546 332.52 682.066C332.227 677.879 332.678 676.388 335.438 673.062C336.283 672.382 337.129 671.701 338 671C338.495 670.505 338.495 670.505 339 670C345.298 669.762 345.298 669.762 348.017 670.683C350.048 671.232 350.048 671.232 351.696 669.922C352.261 669.353 352.826 668.785 353.409 668.199C354.063 667.553 354.718 666.907 355.392 666.241C356.099 665.518 356.806 664.794 357.535 664.049C358.288 663.298 359.042 662.547 359.818 661.773C362.316 659.276 364.797 656.761 367.277 654.246C369.007 652.509 370.739 650.773 372.471 649.039C377.039 644.457 381.591 639.86 386.141 635.261C389.849 631.518 393.567 627.786 397.287 624.054C401.725 619.601 406.158 615.143 410.59 610.684C411.434 609.834 412.278 608.985 413.148 608.11C415.547 605.695 417.942 603.277 420.336 600.857C421.041 600.148 421.746 599.438 422.472 598.708C426.188 594.943 429.655 591.097 433 587C434.361 585.671 435.753 584.374 437.188 583.125C437.862 582.529 438.536 581.934 439.23 581.32C441 580 441 580 443 580C443 578.35 443 576.7 443 575Z" fill="#30A487"/>
<path d="M326 297C330.391 299.403 330.391 299.403 332 302C331.963 304.374 331.963 304.374 331.636 307.088C331.537 311.928 332.345 314.189 335.517 317.847C337.152 319.516 338.817 321.155 340.505 322.77C341.861 324.131 341.861 324.131 343.244 325.519C345.71 327.992 348.208 330.429 350.714 332.862C353.333 335.416 355.922 338.002 358.514 340.584C362.867 344.91 367.238 349.216 371.624 353.509C377.814 359.566 383.969 365.657 390.118 371.757C398.802 380.368 407.503 388.962 416.236 397.524C417.098 398.373 417.961 399.221 418.849 400.096C419.634 400.864 420.42 401.632 421.229 402.423C422.255 403.429 422.255 403.429 423.301 404.455C424.933 406.08 424.933 406.08 427 407C427 407.66 427 408.32 427 409C427.66 409 428.32 409 429 409C429 409.66 429 410.32 429 411C430.65 411.33 432.3 411.66 434 412C434 412.66 434 413.32 434 414C434.66 414.33 435.32 414.66 436 415C434.564 416.605 433.126 418.209 431.687 419.812C430.887 420.706 430.086 421.599 429.262 422.519C427.548 424.399 425.821 426.226 424 428C424.476 423.001 426.032 420.022 429 416C428.107 414.935 427.21 413.873 426.312 412.812C425.814 412.221 425.315 411.629 424.801 411.019C423.121 409.135 421.364 407.359 419.576 405.579C416.17 402.166 412.809 398.708 409.437 395.262C400.764 386.41 392.064 377.585 383.347 368.777C378.076 363.449 372.816 358.112 367.58 352.75C362.999 348.06 358.399 343.389 353.776 338.74C351.333 336.284 348.902 333.819 346.493 331.329C343.805 328.553 341.074 325.821 338.339 323.09C337.162 321.854 337.162 321.854 335.961 320.592C331.693 316.336 331.693 316.336 326.079 314.647C323.136 314.694 323.136 314.694 320.371 315.106C318 315 318 315 316.208 313.155C314.181 309.54 314.312 306.023 315 302C318.049 297.934 320.922 296.307 326 297Z" fill="#0758B2"/>
<path d="M106 239C106.99 239.66 107.98 240.32 109 241C109.353 243.823 109.353 243.823 109.323 247.505C109.321 248.18 109.32 248.856 109.318 249.552C109.309 251.826 109.279 254.099 109.249 256.374C109.238 257.999 109.229 259.625 109.22 261.251C109.195 265.675 109.15 270.098 109.102 274.521C109.055 279.14 109.026 283.759 108.994 288.379C108.932 297.13 108.854 305.881 108.771 314.632C108.677 324.593 108.6 334.554 108.524 344.516C108.368 365.011 108.191 385.505 108 406C107.34 406 106.68 406 106 406C106 433.72 106 461.44 106 490C105.34 490.33 104.68 490.66 104 491C103.977 466.262 103.959 441.523 103.948 416.785C103.943 405.299 103.936 393.813 103.924 382.328C103.915 372.32 103.908 362.312 103.906 352.304C103.905 347.003 103.901 341.701 103.894 336.399C103.887 331.413 103.885 326.428 103.887 321.442C103.887 319.608 103.885 317.774 103.881 315.94C103.876 313.444 103.877 310.949 103.88 308.454C103.877 307.72 103.874 306.987 103.871 306.231C103.886 301.228 103.886 301.228 105 299C105.12 297.091 105.177 295.178 105.205 293.265C105.235 291.463 105.235 291.463 105.266 289.625C105.282 288.323 105.299 287.021 105.316 285.68C105.337 284.337 105.358 282.995 105.379 281.653C105.435 278.118 105.484 274.584 105.532 271.049C105.582 267.443 105.638 263.837 105.693 260.23C105.801 253.154 105.902 246.077 106 239Z" fill="#E9E9E9"/>
<path d="M578 582C577.837 583.921 577.674 585.841 577.512 587.762C578.233 591.069 580.634 592.72 583 595C584.343 596.343 585.683 597.689 587.021 599.037C591.211 603.245 595.405 607.451 599.6 611.655C601.404 613.464 603.207 615.274 605.009 617.084C607.624 619.712 610.244 622.337 612.863 624.961C613.659 625.762 614.455 626.563 615.276 627.389C618.714 630.828 622.16 634.187 625.863 637.341C630.794 641.588 635.257 646.289 639.769 650.969C642.479 653.773 645.211 656.555 647.939 659.34C651.39 662.862 654.832 666.39 658.247 669.947C661.029 672.843 663.835 675.713 666.659 678.569C667.722 679.653 668.777 680.746 669.822 681.848C676.677 689.215 676.677 689.215 686.065 692.073C686.949 692.049 687.833 692.026 688.744 692.002C691 692 691 692 693.688 693.625C695.573 697.038 695.606 699.161 695 703C693.005 705.931 691.572 707.645 688.027 708.445C684.786 708.627 682.368 708.193 679.5 706.688C677.699 703.461 678.169 702.722 678.719 699.191C678.782 694.088 677.365 691.627 674.063 687.986C671.12 684.987 668.078 682.11 665 679.25C663.764 678.061 662.531 676.87 661.301 675.676C656.682 671.223 652.01 666.859 647.146 662.673C642.544 658.664 638.26 654.368 633.969 650.031C633.133 649.192 632.298 648.353 631.437 647.488C627.897 643.931 624.362 640.369 620.827 636.806C618.23 634.192 615.631 631.58 613.031 628.969C612.245 628.174 611.458 627.379 610.647 626.56C606.473 622.367 602.221 618.339 597.725 614.491C595.34 612.43 593.128 610.327 591 608C591 607.34 591 606.68 591 606C590.459 605.786 589.917 605.572 589.359 605.352C586.161 603.519 583.79 601.002 581.25 598.375C580.743 597.859 580.237 597.344 579.715 596.812C578.472 595.546 577.235 594.274 576 593C572.455 594.398 572.455 594.398 569 596C570.415 591.164 572.337 587.245 575 583C577 582 577 582 578 582Z" fill="#33D260"/>
<path d="M516 217C519.063 219.063 519.063 219.063 521 222C521.686 226.267 521.5 228.207 519.188 231.875C517 234 517 234 514 235C514 283.84 514 332.68 514 383C515.32 383.33 516.64 383.66 518 384C513.71 384 509.42 384 505 384C506.98 383.01 506.98 383.01 509 382C509.706 379.59 509.706 379.59 509.738 376.732C509.793 375.647 509.849 374.563 509.906 373.446C509.952 371.74 509.952 371.74 510 370C510.03 368.929 510.06 367.857 510.091 366.753C510.158 363.266 510.181 359.781 510.193 356.293C510.201 354.979 510.209 353.666 510.218 352.312C510.244 348.009 510.259 343.706 510.273 339.402C510.279 337.913 510.284 336.423 510.29 334.934C510.311 328.744 510.33 322.554 510.341 316.365C510.358 307.52 510.391 298.677 510.448 289.833C510.486 283.593 510.506 277.354 510.511 271.114C510.515 267.393 510.527 263.673 510.559 259.952C510.595 255.815 510.591 251.68 510.584 247.543C510.6 246.31 510.616 245.077 510.633 243.807C510.625 242.685 510.617 241.562 510.608 240.405C510.613 238.939 510.613 238.939 510.618 237.444C510.227 234.765 510.227 234.765 507.587 233.35C506.733 232.904 505.88 232.459 505 232C502.535 228.303 502.335 225.29 503 221C505.895 215.966 510.738 215.933 516 217Z" fill="#136EB3"/>
<path d="M914 242C915.333 242 916.667 242 918 242C918 323.51 918 405.02 918 489C917.34 489.33 916.68 489.66 916 490C915.996 488.789 915.992 487.577 915.987 486.329C915.886 457.548 915.781 428.766 915.669 399.985C915.655 396.439 915.641 392.893 915.628 389.347C915.625 388.641 915.622 387.935 915.619 387.208C915.575 375.792 915.535 364.376 915.495 352.961C915.455 341.239 915.411 329.517 915.363 317.796C915.337 311.215 915.312 304.635 915.291 298.054C915.271 291.857 915.247 285.659 915.22 279.461C915.21 277.191 915.202 274.92 915.197 272.649C915.188 269.54 915.174 266.43 915.158 263.32C915.157 262.43 915.156 261.54 915.155 260.623C915.115 254.373 914.648 248.215 914 242Z" fill="#E2E2E3"/>
<path d="M687.438 314.75C690 315 690 315 693 317C693.188 320.625 693.188 320.625 693 324C691.742 324.268 690.484 324.536 689.188 324.812C683.762 326.552 680.392 330.161 676.632 334.24C675.45 335.52 674.228 336.764 673 338C672.34 338 671.68 338 671 338C671 338.66 671 339.32 671 340C669.72 341.263 669.72 341.263 667.835 342.8C661.433 348.25 655.58 354.256 649.637 360.195C648.355 361.474 647.073 362.752 645.791 364.03C643.12 366.696 640.45 369.364 637.781 372.034C634.365 375.449 630.943 378.858 627.519 382.265C624.876 384.897 622.237 387.534 619.6 390.172C618.339 391.431 617.078 392.688 615.814 393.944C614.051 395.698 612.293 397.458 610.538 399.219C610.019 399.733 609.5 400.246 608.965 400.775C606.118 403.647 603.981 406.484 602 410C600.246 411.66 600.246 411.66 598.438 413.062C595.755 415.145 594.353 416.87 593 420C592.273 419.238 592.273 419.238 591.531 418.461C586.991 413.799 582.325 409.739 577 406C577.99 405.01 578.98 404.02 580 403C580.371 403.763 580.743 404.526 581.125 405.312C583.376 408.539 585.485 409.355 589 411C589.66 411.99 590.32 412.98 591 414C591.495 413.01 591.495 413.01 592 412C592.66 412 593.32 412 594 412C594 411.34 594 410.68 594 410C595.641 408.57 597.34 407.206 599.062 405.875C603.291 402.499 606.949 399.109 610.367 394.922C612.447 392.474 614.721 390.264 617 388C618.585 386.41 620.17 384.82 621.755 383.229C626.295 378.673 630.837 374.12 635.38 369.568C638.118 366.825 640.856 364.08 643.591 361.334C646.253 358.661 648.917 355.991 651.583 353.322C652.591 352.313 653.597 351.303 654.603 350.291C660.228 344.636 665.927 339.172 672 334C673.835 332.358 675.651 330.695 677.438 329C678.282 328.216 679.126 327.433 679.996 326.625C682.458 323.401 682.592 320.979 683 317C685 315 685 315 687.438 314.75Z" fill="#4F8C92"/>
<path d="M506 710C509.3 710 512.6 710 516 710C515.01 710.33 514.02 710.66 513 711C513 739.38 513 767.76 513 797C514.32 797.33 515.64 797.66 517 798C519.916 800.187 520.883 801.312 521.5 804.938C520.89 808.673 519.613 810.31 517 813C513.821 814.589 511.504 814.416 508 814C504.777 811.119 503.243 809.191 502.375 804.938C503.214 800.994 504.877 799.469 508 797C508.99 797 509.98 797 511 797C511 768.62 511 740.24 511 711C509.35 711 507.7 711 506 711C506 710.67 506 710.34 506 710Z" fill="#3EC768"/>
<path d="M693.238 375.973C693.923 376.332 694.607 376.692 695.312 377.063C696.01 377.425 696.707 377.787 697.426 378.16C698.205 378.576 698.205 378.576 699 379C699.535 383.449 699.777 387.571 699 392C696.492 395.065 693.782 396.834 690 398C684.993 397.498 680.382 395.817 677 392C675.737 387.747 675.739 384.253 677 380C681.858 374.386 686.476 373.034 693.238 375.973Z" fill="#93CED2"/>
<path d="M370 434C372.45 435.18 374.671 436.584 377 438C377 442.29 377 446.58 377 451C368.728 456.062 368.728 456.062 365.438 455.781C361.918 454.653 359.155 452.918 356 451C356 446.71 356 442.42 356 438C365.102 432.43 365.102 432.43 370 434Z" fill="#A4D0DB"/>
<path d="M367 350C370.886 351.581 373.491 354.228 376.379 357.168C376.903 357.694 377.428 358.219 377.967 358.76C379.694 360.493 381.413 362.233 383.133 363.973C384.332 365.179 385.533 366.384 386.733 367.589C389.89 370.759 393.041 373.934 396.19 377.111C401.237 382.202 406.291 387.285 411.348 392.365C413.115 394.143 414.879 395.924 416.643 397.705C417.722 398.79 418.8 399.876 419.879 400.961C420.617 401.708 420.617 401.708 421.369 402.471C423.935 405.065 423.935 405.065 427 407C427 407.66 427 408.32 427 409C427.66 409 428.32 409 429 409C429 409.66 429 410.32 429 411C430.65 411.33 432.3 411.66 434 412C434 412.66 434 413.32 434 414C434.66 414.33 435.32 414.66 436 415C434.564 416.605 433.126 418.209 431.688 419.812C430.887 420.706 430.086 421.599 429.262 422.52C427.548 424.399 425.821 426.226 424 428C424.476 423.001 426.032 420.022 429 416C428.107 414.935 427.21 413.873 426.312 412.812C425.814 412.221 425.315 411.629 424.801 411.02C420.995 406.752 416.814 402.82 412.751 398.798C407.708 393.804 402.672 388.802 397.641 383.796C394.603 380.774 391.562 377.754 388.515 374.741C385.559 371.818 382.61 368.887 379.667 365.951C378.544 364.835 377.42 363.721 376.292 362.609C374.722 361.061 373.161 359.503 371.602 357.943C370.711 357.059 369.82 356.174 368.903 355.263C367 353 367 353 367 350Z" fill="#4A879E"/>
<path d="M578 582C577.837 583.921 577.674 585.841 577.512 587.762C578.233 591.069 580.634 592.72 583 595C584.343 596.343 585.683 597.689 587.021 599.037C591.211 603.245 595.405 607.451 599.6 611.655C601.404 613.464 603.207 615.274 605.009 617.084C607.624 619.712 610.244 622.337 612.863 624.961C613.659 625.762 614.455 626.563 615.276 627.389C619.47 631.584 623.749 635.601 628.245 639.471C630.496 641.432 632.616 643.503 634.719 645.621C635.898 646.805 635.898 646.805 637.102 648.014C637.893 648.814 638.685 649.613 639.5 650.438C640.322 651.264 641.145 652.091 641.992 652.943C643.997 654.96 646 656.979 648 659C647.01 659.66 646.02 660.32 645 661C644.504 660.502 644.008 660.004 643.497 659.491C638.793 654.766 634.087 650.045 629.377 645.325C626.957 642.9 624.538 640.474 622.121 638.045C619.333 635.245 616.542 632.448 613.75 629.652C612.894 628.792 612.039 627.931 611.157 627.044C606.8 622.687 602.384 618.472 597.7 614.467C595.322 612.415 593.12 610.319 591 608C591 607.34 591 606.68 591 606C590.459 605.786 589.917 605.572 589.359 605.352C586.161 603.519 583.79 601.002 581.25 598.375C580.743 597.859 580.237 597.344 579.715 596.812C578.472 595.546 577.235 594.274 576 593C572.455 594.398 572.455 594.398 569 596C570.415 591.164 572.337 587.245 575 583C577 582 577 582 578 582Z" fill="#49A393"/>
<path d="M530 642C528.02 642.99 528.02 642.99 526 644C526 644.66 526 645.32 526 646C526.99 646.33 527.98 646.66 529 647C510.368 649.962 491.708 652.573 473 655C473 654.34 473 653.68 473 653C475.31 653 477.62 653 480 653C480 652.01 480 651.02 480 650C478.68 649.67 477.36 649.34 476 649C481.849 647.641 487.691 646.479 493.625 645.563C494.42 645.439 495.214 645.316 496.033 645.189C502.847 644.147 509.67 643.178 516.5 642.25C517.497 642.11 518.495 641.971 519.522 641.827C520.453 641.703 521.384 641.58 522.344 641.453C523.584 641.286 523.584 641.286 524.85 641.114C527 641 527 641 530 642Z" fill="#27554C"/>
<path d="M405 465C405.99 465.495 405.99 465.495 407 466C406.793 466.937 406.793 466.937 406.582 467.892C404.973 475.813 404.61 483.559 404.438 491.625C404.378 494.138 404.314 496.651 404.246 499.164C404.21 500.811 404.21 500.811 404.174 502.491C404 505 404 505 403 506C400.836 506.097 398.668 506.122 396.502 506.12C395.815 506.121 395.128 506.122 394.42 506.123C392.102 506.125 389.783 506.119 387.465 506.114C385.809 506.113 384.154 506.113 382.499 506.114C377.991 506.114 373.483 506.108 368.975 506.101C364.269 506.095 359.563 506.095 354.857 506.093C345.939 506.09 337.021 506.082 328.104 506.072C317.954 506.061 307.804 506.055 297.654 506.05C276.77 506.04 255.885 506.022 235 506C235.33 505.34 235.66 504.68 236 504C318.17 504.495 318.17 504.495 402 505C402 492.79 402 480.58 402 468C402.99 467.01 403.98 466.02 405 465Z" fill="#29656E"/>
<path d="M621 473C621.33 473 621.66 473 622 473C622.195 475.249 622.381 477.5 622.562 479.75C622.667 481.003 622.771 482.256 622.879 483.547C622.979 486.395 622.906 488.343 622 491C622.66 491 623.32 491 624 491C624.089 494.846 623.811 498.247 623 502C623 502.99 623 503.98 623 505C677.78 505 732.56 505 789 505C789 505.33 789 505.66 789 506C732.9 506 676.8 506 619 506C619 475 619 475 621 473Z" fill="#2D7664"/>
<path d="M331.438 337.938C332.283 338.288 333.129 338.639 334 339C334.7 340.7 335.399 342.401 336.083 344.108C337.615 347.268 340.044 349.575 342.525 351.995C343.077 352.549 343.629 353.103 344.197 353.673C346.007 355.486 347.831 357.284 349.656 359.082C350.924 360.344 352.19 361.608 353.456 362.872C356.103 365.511 358.756 368.144 361.415 370.771C364.823 374.14 368.22 377.519 371.613 380.903C374.853 384.133 378.098 387.358 381.344 390.582C381.962 391.197 382.581 391.812 383.218 392.446C384.968 394.184 386.721 395.918 388.475 397.652C388.992 398.166 389.51 398.681 390.043 399.212C392.277 401.413 394.378 403.252 397 405C397 405.66 397 406.32 397 407C398.98 407.99 398.98 407.99 401 409C401 409.66 401 410.32 401 411C401.557 411.206 402.114 411.412 402.688 411.625C405.304 413.181 406.833 415.106 408.699 417.48C410.12 419.237 410.12 419.237 412.75 421.188C415 423 415 423 416 426C413.05 424.631 410.475 423.122 408 421C408 420.34 408 419.68 408 419C407.443 418.773 406.886 418.546 406.312 418.312C403.347 416.63 401.346 414.464 399 412C398.237 411.278 397.474 410.556 396.688 409.812C395 408 395 408 395 406C394.34 406 393.68 406 393 406C393 405.34 393 404.68 393 404C392.111 403.617 392.111 403.617 391.203 403.226C388.776 401.875 387.508 400.522 385.751 398.384C382.029 393.99 378.061 389.916 373.984 385.852C373.247 385.113 372.509 384.374 371.749 383.613C370.204 382.068 368.658 380.523 367.11 378.98C364.739 376.614 362.373 374.243 360.008 371.871C358.5 370.364 356.993 368.858 355.484 367.352C354.778 366.643 354.072 365.935 353.344 365.205C352.686 364.55 352.028 363.896 351.351 363.221C350.774 362.646 350.198 362.07 349.604 361.477C347.86 359.795 347.86 359.795 345 358C345 357.34 345 356.68 345 356C344.34 356 343.68 356 343 356C341.915 354.766 340.881 353.486 339.875 352.188C337.3 349.104 335.475 347.49 331.625 346.312C329.831 345.663 329.831 345.663 328 345C326.875 342.438 326.875 342.438 327 340C329 338 329 338 331.438 337.938Z" fill="#2D4141"/>
<path d="M801 498C803.938 499.437 803.938 499.437 806 502C806.895 506.278 806.709 509.736 804.562 513.562C800.746 515.703 797.273 515.785 793 515C790.271 513.089 789.295 511.886 788.25 508.75C788.167 508.172 788.085 507.595 788 507C788.99 507 789.98 507 791 507C790.34 506.67 789.68 506.34 789 506C789.317 503.068 789.632 501.41 791.625 499.187C794.984 497.508 797.29 497.544 801 498Z" fill="#2BD075"/>
<path d="M443 575C444.376 576.29 445.708 577.627 447 579C447 579.66 447 580.32 447 581C445.391 582.516 445.391 582.516 443.25 584.25C439.124 587.756 436.169 591.296 434 596.312C433 598 433 598 431.062 598.562C430.382 598.707 429.701 598.851 429 599C427.978 599.978 426.98 600.981 426 602C425.251 602.423 424.501 602.846 423.729 603.282C420.615 605.242 418.337 607.471 415.77 610.105C415.293 610.59 414.817 611.074 414.326 611.572C412.816 613.106 411.314 614.646 409.812 616.188C407.825 618.228 405.83 620.263 403.832 622.293C402.953 623.196 402.073 624.098 401.167 625.028C399 627 399 627 397 627C397.58 623.784 398.465 622.166 400.788 619.887C401.665 619.016 401.665 619.016 402.559 618.127C403.194 617.51 403.83 616.893 404.484 616.258C405.137 615.612 405.79 614.966 406.462 614.3C408.551 612.235 410.65 610.179 412.75 608.125C414.834 606.076 416.916 604.025 418.995 601.971C420.289 600.695 421.585 599.421 422.885 598.151C426.501 594.594 429.795 590.93 433 587C434.361 585.671 435.753 584.374 437.188 583.125C437.862 582.529 438.536 581.934 439.23 581.32C441 580 441 580 443 580C443 578.35 443 576.7 443 575Z" fill="#54A297"/>
<path d="M404 498C404.33 498 404.66 498 405 498C405.99 505.425 405.99 505.425 407 513C405.68 513 404.36 513 403 513C402.505 511.02 402.505 511.02 402 509C400.948 508.99 399.896 508.979 398.812 508.969C388.825 508.87 378.838 508.768 368.851 508.661C363.718 508.606 358.585 508.552 353.453 508.503C348.486 508.454 343.519 508.402 338.553 508.347C336.672 508.327 334.791 508.308 332.909 508.291C321.243 508.183 309.64 507.808 298 507C298 506.67 298 506.34 298 506C332.65 505.67 367.3 505.34 403 505C403.33 502.69 403.66 500.38 404 498Z" fill="#5098A6"/>
<path d="M511 289C511.33 289 511.66 289 512 289C513.137 293.562 513.172 298.066 513.205 302.738C513.215 303.606 513.225 304.475 513.235 305.37C513.267 308.232 513.292 311.095 513.316 313.957C513.337 315.945 513.358 317.934 513.379 319.922C513.435 325.148 513.484 330.374 513.532 335.6C513.583 340.936 513.638 346.272 513.693 351.607C513.801 362.072 513.902 372.536 514 383C515.32 383.33 516.64 383.66 518 384C513.71 384 509.42 384 505 384C506.98 383.01 506.98 383.01 509 382C509.705 379.768 509.705 379.768 509.73 377.056C509.813 375.429 509.813 375.429 509.898 373.769C509.948 371.903 509.948 371.903 510 370C510.019 369.322 510.038 368.645 510.057 367.947C510.202 362.335 510.262 356.723 510.316 351.109C510.337 349.31 510.358 347.512 510.379 345.713C510.434 341.018 510.484 336.323 510.532 331.628C510.583 326.821 510.638 322.014 510.693 317.207C510.8 307.805 510.902 298.402 511 289Z" fill="#5B96AC"/>
<path d="M687.438 314.75C690 315 690 315 693 317C693.188 320.625 693.188 320.625 693 324C691.742 324.268 690.484 324.536 689.188 324.812C683.762 326.552 680.392 330.161 676.632 334.24C675.45 335.52 674.228 336.764 673 338C672.34 338 671.68 338 671 338C671 338.66 671 339.32 671 340C669.602 341.375 669.602 341.375 667.625 343C663.171 346.762 659.143 350.861 655.102 355.059C653 357 653 357 651 357C651.415 352.543 654.511 350.117 657.562 347.188C658.108 346.653 658.654 346.118 659.216 345.567C662.113 342.748 665.06 340.012 668.125 337.375C671.289 334.644 674.395 331.866 677.438 329C678.282 328.216 679.126 327.433 679.996 326.625C682.458 323.401 682.592 320.979 683 317C685 315 685 315 687.438 314.75Z" fill="#3F90A0"/>
<path d="M472 692C475.3 692 478.6 692 482 692C481.67 692.66 481.34 693.32 481 694C480.905 695.537 480.872 697.078 480.871 698.617C480.867 699.575 480.864 700.533 480.861 701.519C480.863 702.556 480.865 703.592 480.867 704.66C480.866 705.72 480.865 706.781 480.864 707.873C480.864 710.117 480.865 712.36 480.87 714.604C480.875 718.052 480.87 721.499 480.863 724.947C480.864 727.122 480.865 729.298 480.867 731.473C480.865 732.511 480.863 733.55 480.861 734.62C480.864 735.574 480.867 736.529 480.871 737.512C480.871 738.356 480.872 739.201 480.873 740.071C480.788 742.007 480.788 742.007 482 743C482.125 745.5 482.125 745.5 482 748C481 749 481 749 478.5 749.125C476 749 476 749 475 748C474.928 746.481 474.916 744.958 474.938 743.438C474.947 742.611 474.956 741.785 474.965 740.934C474.976 740.296 474.988 739.657 475 739C475.66 739 476.32 739 477 739C477 723.82 477 708.64 477 693C475.35 693 473.7 693 472 693C472 692.67 472 692.34 472 692Z" fill="#263F35"/>
<path d="M701 824C709.12 823.977 717.24 823.959 725.36 823.948C729.132 823.943 732.904 823.936 736.676 823.925C740.326 823.914 743.976 823.908 747.627 823.905C749.009 823.903 750.391 823.9 751.773 823.894C760.567 823.861 769.243 824.183 778 825C777.67 825.66 777.34 826.32 777 827C751.92 827 726.84 827 701 827C701 826.01 701 825.02 701 824Z" fill="#35C05E"/>
<path d="M509 667C508.34 667.99 507.68 668.98 507 670C508.32 670.33 509.64 670.66 511 671C510.331 671.111 509.661 671.221 508.971 671.336C505.877 671.848 502.782 672.361 499.688 672.875C498.109 673.136 498.109 673.136 496.498 673.402C494.927 673.663 494.927 673.663 493.324 673.93C492.274 674.103 491.224 674.277 490.142 674.456C486.196 675.139 482.272 675.923 478.351 676.735C475.926 677.008 474.303 676.75 472 676C471.67 674.35 471.34 672.7 471 671C475.767 670.26 480.536 669.53 485.307 668.809C486.929 668.562 488.551 668.313 490.172 668.061C492.504 667.699 494.838 667.346 497.172 666.996C498.256 666.824 498.256 666.824 499.363 666.649C502.817 666.141 505.68 665.764 509 667Z" fill="#1C3E34"/>
<path d="M625 405C627 407 627 407 627.195 409.164C627.172 409.976 627.149 410.788 627.125 411.625C627.107 412.442 627.089 413.259 627.07 414.102C627.047 414.728 627.024 415.354 627 416C626.443 416.207 625.886 416.415 625.312 416.629C615.875 420.439 609.824 426.07 605 435C602.474 432.637 601.112 431.335 600 428C601.32 428.33 602.64 428.66 604 429C604 428.34 604 427.68 604 427C605.418 426.054 606.838 425.111 608.266 424.18C611.312 422.108 614.075 420.201 616 417C616.287 414.3 616.2 411.87 615.918 409.172C615.945 408.455 615.972 407.738 616 407C619.452 404.698 620.947 404.655 625 405Z" fill="#376361"/>
<path d="M469 609C469.99 609 470.98 609 472 609C472 611.31 472 613.62 472 616C499.06 616 526.12 616 554 616C554 616.66 554 617.32 554 618C526.28 618 498.56 618 470 618C468.522 615.043 468.94 612.258 469 609Z" fill="#568F87"/>
<path d="M256.382 233.886C257.095 233.886 257.808 233.886 258.543 233.886C260.88 233.887 263.217 233.894 265.555 233.902C267.183 233.904 268.811 233.906 270.439 233.907C274.71 233.91 278.981 233.92 283.252 233.931C287.616 233.942 291.98 233.946 296.344 233.951C304.896 233.962 313.448 233.979 322 234C322 234.33 322 234.66 322 235C320.67 235.012 320.67 235.012 319.314 235.024C310.942 235.103 302.571 235.19 294.2 235.287C289.897 235.337 285.593 235.384 281.29 235.422C277.134 235.459 272.977 235.505 268.821 235.558C267.239 235.576 265.657 235.592 264.074 235.603C261.851 235.62 259.628 235.649 257.404 235.681C255.509 235.701 255.509 235.701 253.575 235.721C247.301 236.21 242.559 237.571 238 242C235.546 245.64 235.694 249.374 235.681 253.614C235.671 254.376 235.661 255.137 235.651 255.921C235.62 258.432 235.603 260.942 235.586 263.453C235.567 265.196 235.548 266.939 235.527 268.682C235.476 273.266 235.436 277.849 235.399 282.432C235.359 287.111 235.308 291.79 235.258 296.469C235.161 305.646 235.077 314.823 235 324C234.67 324 234.34 324 234 324C233.954 313.36 233.918 302.721 233.896 292.081C233.886 287.141 233.872 282.201 233.849 277.26C233.827 272.495 233.815 267.729 233.81 262.964C233.807 261.143 233.799 259.323 233.789 257.503C233.774 254.958 233.772 252.413 233.773 249.868C233.766 249.112 233.759 248.356 233.751 247.577C233.766 243.83 233.866 242.201 236 239C236.99 239 237.98 239 239 239C239 238.34 239 237.68 239 237C244.462 233.849 250.209 233.876 256.382 233.886Z" fill="#144984"/>
<path d="M346 673C348.437 674.625 348.437 674.625 350 677C350.606 680.636 350.471 682.283 348.437 685.375C345.1 687.6 342.931 687.5 339 687C337.062 686 337.062 686 336 684C335.47 680.419 335.341 677.24 337.062 674C340.179 672.391 342.562 672.578 346 673Z" fill="#1C2623"/>
<path d="M612 716C615 718 615 718 615.469 720.059C615.5 722.463 615.462 724.637 615 727C612.812 729.125 612.812 729.125 610 730C606.466 729.747 604.997 728.998 602 727C601.305 723.947 601.4 721.067 602 718C605.298 714.796 607.725 714.537 612 716Z" fill="#4BD677"/>
<path d="M307 410C307.285 413.379 307.433 416.629 307 420C304.812 422.25 304.812 422.25 302 423C298.8 422.162 296.766 420.844 294 419C293.609 415.918 293.363 413.945 294 411C298.024 407.094 302.181 407.591 307 410Z" fill="#65A5CE"/>
<path d="M330 311C342.667 323.667 355.333 336.333 368 349C367.34 349.99 366.68 350.98 366 352C353.46 339.46 340.92 326.92 328 314C328.66 313.67 329.32 313.34 330 313C330 312.34 330 311.68 330 311Z" fill="#135E98"/>
<path d="M690 339C691.98 339 693.96 339 696 339C696.625 341.375 696.625 341.375 697 344C694.121 346.879 690.817 347.728 687 349C686.31 350.322 685.646 351.656 685 353C683.449 354.527 683.449 354.527 681.688 355.938C678.581 358.444 675.813 361.168 673 364C665.333 371.667 657.667 379.333 650 387C649.34 386.67 648.68 386.34 648 386C648.497 385.514 648.993 385.029 649.505 384.529C654.197 379.937 658.876 375.334 663.542 370.717C665.941 368.344 668.345 365.975 670.759 363.618C673.536 360.902 676.297 358.169 679.055 355.434C679.919 354.595 680.784 353.756 681.675 352.892C686.119 348.45 689.045 345.303 690 339Z" fill="#2D4343"/>
<path d="M466 626C482.17 626 498.34 626 515 626C512.594 628.406 511.62 628.384 508.309 628.781C506.89 628.961 506.89 628.961 505.443 629.145C504.451 629.262 503.459 629.379 502.438 629.5C496.207 630.257 490.106 631.072 484.012 632.603C480.653 633.266 477.412 633.124 474 633C474 632.67 474 632.34 474 632C476.97 631.34 479.94 630.68 483 630C483 629.01 483 628.02 483 627C477.39 627 471.78 627 466 627C466 626.67 466 626.34 466 626Z" fill="#418377"/>
<path d="M369 380C372.733 381.553 375.065 383.849 377.879 386.719C378.8 387.651 379.721 388.583 380.67 389.543C381.634 390.528 382.599 391.514 383.562 392.5C385.456 394.43 387.354 396.356 389.254 398.281C390.093 399.138 390.931 399.994 391.795 400.877C394.008 403.134 394.008 403.134 397 405C397 405.66 397 406.32 397 407C398.32 407.66 399.64 408.32 401 409C401 409.66 401 410.32 401 411C401.557 411.206 402.114 411.412 402.688 411.625C405.304 413.181 406.833 415.106 408.699 417.48C410.12 419.237 410.12 419.237 412.75 421.188C415 423 415 423 416 426C413.05 424.631 410.475 423.122 408 421C408 420.34 408 419.68 408 419C407.443 418.773 406.886 418.546 406.312 418.312C403.347 416.63 401.346 414.464 399 412C398.237 411.278 397.474 410.556 396.688 409.812C395 408 395 408 395 406C394.34 406 393.68 406 393 406C393 405.34 393 404.68 393 404C392.401 403.738 391.801 403.477 391.184 403.207C388.851 401.918 387.726 400.748 386.062 398.688C382.071 393.944 377.694 389.639 373.268 385.305C371.828 383.887 370.412 382.446 369 381C369 380.67 369 380.34 369 380Z" fill="#2C4647"/>
<path d="M342.375 669.75C346 670 346 670 347.938 671.5C348.288 671.995 348.639 672.49 349 673C346 674 346 674 342.438 673.938C338.934 673.603 338.934 673.603 337 676C336.682 677.91 336.682 677.91 336.75 680C336.745 680.701 336.74 681.402 336.734 682.125C336.843 684.244 336.843 684.244 339 686C342.694 686.201 345.479 686.174 349 685C349.103 684.051 349.206 683.103 349.313 682.125C350 679 350 679 353 677C352.756 681.14 352.367 683.503 349.875 686.875C346.305 689.514 344.451 690.23 340 690C337.003 688.493 334.938 686.739 333 684C332.121 681.123 332.129 678.878 333 676C335.438 673.062 335.438 673.062 338 671C339 670 339 670 342.375 669.75Z" fill="#36947E"/>
<path d="M650 355C650.66 355.99 651.32 356.98 652 358C642.1 367.9 632.2 377.8 622 388C621.67 386.68 621.34 385.36 621 384C621.981 382.418 621.981 382.418 623.549 380.884C624.129 380.303 624.71 379.723 625.308 379.125C625.948 378.512 626.587 377.898 627.246 377.266C627.891 376.628 628.536 375.99 629.201 375.332C631.268 373.293 633.353 371.271 635.438 369.25C636.84 367.872 638.242 366.493 639.643 365.113C643.082 361.729 646.537 358.36 650 355Z" fill="#508F9C"/>
<path d="M499 689C499 689.99 499 690.98 499 692C498.01 692.495 498.01 692.495 497 693C511.19 693.33 525.38 693.66 540 694C540 694.33 540 694.66 540 695C521.52 695 503.04 695 484 695C483.67 695.66 483.34 696.32 483 697C483 696.01 483 695.02 483 694C482.34 693.67 481.68 693.34 481 693C481.33 692.34 481.66 691.68 482 691C484.801 690.367 484.801 690.367 488.312 689.875C489.464 689.707 490.615 689.54 491.801 689.367C495 689 495 689 499 689Z" fill="#1B4838"/>
<path d="M369.062 623.25C372 624 372 624 374 626C374.375 629.438 374.375 629.438 374 633C372.312 635 372.312 635 370 636C366.63 635.759 365.412 635.412 363 633C362.699 631.125 362.699 631.125 362.688 629C362.671 628.299 362.654 627.598 362.637 626.875C362.757 626.256 362.876 625.638 363 625C366 623 366 623 369.062 623.25Z" fill="#6EC2BC"/>
<path d="M646 660C649.3 660.582 650.916 661.549 653.252 663.927C653.863 664.542 654.474 665.156 655.103 665.788C656.075 666.788 656.075 666.788 657.066 667.809C657.742 668.491 658.417 669.172 659.113 669.875C661.27 672.056 663.417 674.246 665.562 676.438C667.714 678.624 669.867 680.808 672.023 682.989C673.364 684.347 674.702 685.708 676.036 687.073C676.948 687.999 676.948 687.999 677.877 688.943C678.675 689.758 678.675 689.758 679.489 690.589C681.153 692.219 681.153 692.219 684 694C681.902 694.372 681.902 694.372 679 694C676.647 692.083 674.646 690.229 672.562 688.051C671.96 687.441 671.357 686.832 670.737 686.203C668.812 684.251 666.906 682.282 665 680.312C663.717 679.005 662.433 677.698 661.148 676.393C658.255 673.449 655.373 670.494 652.5 667.53C651.05 666.051 649.577 664.599 648.098 663.149C646 661 646 661 646 660Z" fill="#43CA68"/>
<path d="M620 635C624.87 635.406 627.281 637.751 630.52 641.129C631.023 641.638 631.526 642.147 632.045 642.672C633.644 644.293 635.228 645.927 636.812 647.562C637.897 648.667 638.982 649.77 640.068 650.873C642.723 653.572 645.365 656.282 648 659C647.01 659.66 646.02 660.32 645 661C641.436 657.461 637.876 653.919 634.319 650.374C633.107 649.167 631.895 647.961 630.681 646.757C628.941 645.029 627.205 643.298 625.469 641.566C624.922 641.025 624.375 640.483 623.812 639.925C622.522 638.635 621.258 637.32 620 636C620 635.67 620 635.34 620 635Z" fill="#48AE74"/>
<path d="M423 405C425.125 405.938 425.125 405.938 427 407C427 407.66 427 408.32 427 409C427.66 409 428.32 409 429 409C429 409.66 429 410.32 429 411C430.65 411.33 432.3 411.66 434 412C434 412.66 434 413.32 434 414C434.66 414.33 435.32 414.66 436 415C434.564 416.605 433.126 418.209 431.688 419.812C430.887 420.706 430.086 421.599 429.262 422.52C427.548 424.399 425.821 426.226 424 428C424.476 423.001 426.032 420.022 429 416C428.046 414.851 427.086 413.706 426.125 412.562C425.591 411.924 425.058 411.286 424.508 410.629C423.078 408.892 423.078 408.892 421 408C421 407.34 421 406.68 421 406C421.66 405.67 422.32 405.34 423 405Z" fill="#428489"/>
<path d="M443 575C444.376 576.29 445.708 577.627 447 579C447 579.66 447 580.32 447 581C445.391 582.516 445.391 582.516 443.25 584.25C439.124 587.756 436.169 591.296 434 596.312C433 598 433 598 431.062 598.562C430.382 598.707 429.701 598.851 429 599C427.27 600.479 427.27 600.479 426 602C425.34 601.67 424.68 601.34 424 601C424.71 600.301 425.421 599.603 426.152 598.883C427.071 597.973 427.991 597.063 428.938 596.125C430.312 594.768 430.312 594.768 431.715 593.383C434.012 591.223 434.012 591.223 435 589C434.34 589 433.68 589 433 589C433 587 433 587 434.68 585.273C435.404 584.647 436.129 584.02 436.875 583.375C437.594 582.743 438.314 582.112 439.055 581.461C441 580 441 580 443 580C443 578.35 443 576.7 443 575Z" fill="#499D8F"/>
<path d="M512 349C512.33 349 512.66 349 513 349C513.33 360.22 513.66 371.44 514 383C515.32 383.33 516.64 383.66 518 384C513.71 384 509.42 384 505 384C506.32 383.34 507.64 382.68 509 382C509.578 379.42 509.882 377.199 510.047 374.586C510.108 373.856 510.169 373.127 510.232 372.375C510.422 370.043 510.586 367.709 510.75 365.375C510.875 363.794 511.001 362.213 511.129 360.633C511.439 356.756 511.726 352.879 512 349Z" fill="#4A8C91"/>
<path d="M507 623C508.986 623.293 510.971 623.586 512.957 623.879C515.203 624.139 515.203 624.139 518 623C519.733 623.085 521.464 623.236 523.188 623.438C524.539 623.59 524.539 623.59 525.918 623.746C526.949 623.872 526.949 623.872 528 624C527.67 624.66 527.34 625.32 527 626C519.834 627.198 512.771 627.055 505.527 626.879C504.364 626.855 503.2 626.832 502.001 626.807C498.313 626.731 494.625 626.647 490.938 626.562C488.425 626.509 485.913 626.456 483.4 626.404C477.267 626.276 471.133 626.14 465 626C465 625.67 465 625.34 465 625C478.86 625 492.72 625 507 625C507 624.34 507 623.68 507 623Z" fill="#C8E6E6"/>
<path d="M538 622C539.604 621.973 541.208 621.954 542.812 621.938C543.706 621.926 544.599 621.914 545.52 621.902C548 622 548 622 551 623C552.394 623.067 553.792 623.085 555.188 623.062C556.446 623.042 557.704 623.021 559 623C559 623.99 559 624.98 559 626C543.236 627.809 543.236 627.809 536 626C536.66 624.68 537.32 623.36 538 622Z" fill="#B9E6E3"/>
<path d="M579 403C579.536 403.763 580.072 404.526 580.625 405.312C583.217 408.246 585.508 409.33 589 411C589.99 412.485 589.99 412.485 591 414C591.33 413.34 591.66 412.68 592 412C592.66 412 593.32 412 594 412C594 411.34 594 410.68 594 410C595.531 408.711 595.531 408.711 597.5 407.375C598.15 406.929 598.799 406.483 599.469 406.023C599.974 405.686 600.479 405.348 601 405C599.857 409.954 598.752 412.6 595 416C594.299 417.316 593.627 418.648 593 420C592.515 419.492 592.031 418.984 591.531 418.461C586.991 413.799 582.325 409.739 577 406C577.66 405.01 578.32 404.02 579 403Z" fill="#3E8180"/>
<path d="M685 315C688.716 314.799 689.772 314.848 693 317C693.188 320.625 693.188 320.625 693 324C687.375 325.125 687.375 325.125 684 324C684.33 321.03 684.66 318.06 685 315Z" fill="#39A8BD"/>
<path d="M599 550C599.99 550.33 600.98 550.66 602 551C600.125 555.75 600.125 555.75 599 558C598.402 558.144 597.804 558.289 597.188 558.438C594.588 559.106 593.057 560.311 591 562C592.41 558.961 594.089 556.406 596.125 553.75C596.933 552.69 596.933 552.69 597.758 551.609C598.168 551.078 598.578 550.547 599 550ZM590 562C590.687 564.491 591 566.379 591 569C589.35 569.33 587.7 569.66 586 570C586 571.32 586 572.64 586 574C584.35 574.33 582.7 574.66 581 575C582.52 569.595 586.274 566.015 590 562Z" fill="#398475"/>
<path d="M396 625C396.66 625.99 397.32 626.98 398 628C392.39 633.61 386.78 639.22 381 645C380.01 644.34 379.02 643.68 378 643C383.94 637.06 389.88 631.12 396 625Z" fill="#3FA38D"/>
<path d="M559 595C557.68 601.93 556.36 608.86 555 616C554.67 615.01 554.34 614.02 554 613C553.34 613 552.68 613 552 613C551.434 601.212 551.434 601.212 555 596C557 595 557 595 559 595Z" fill="#326A63"/>
<path d="M367 350C370.152 351.393 372.262 353.025 374.672 355.477C375.336 356.147 376 356.817 376.684 357.508C377.366 358.206 378.047 358.905 378.75 359.625C379.447 360.331 380.145 361.038 380.863 361.766C382.58 363.506 384.292 365.251 386 367C385.34 367.99 384.68 368.98 384 370C381.155 367.241 378.326 364.466 375.5 361.688C374.689 360.902 373.878 360.116 373.043 359.307C372.276 358.549 371.509 357.792 370.719 357.012C370.007 356.315 369.294 355.619 368.561 354.901C367 353 367 353 367 350Z" fill="#3D80A2"/>
<path d="M349 332C352.152 333.393 354.262 335.025 356.672 337.477C357.336 338.147 358 338.817 358.684 339.508C359.366 340.206 360.047 340.905 360.75 341.625C361.447 342.331 362.145 343.038 362.863 343.766C364.58 345.506 366.292 347.251 368 349C367.34 349.99 366.68 350.98 366 352C363.155 349.241 360.326 346.466 357.5 343.688C356.689 342.902 355.878 342.116 355.043 341.307C354.276 340.549 353.509 339.792 352.719 339.012C352.007 338.315 351.294 337.619 350.561 336.901C349 335 349 335 349 332Z" fill="#2771A0"/>
<path d="M624.909 506.886C625.929 506.887 626.95 506.887 628.002 506.887C629.66 506.894 629.66 506.894 631.351 506.902C632.481 506.904 633.61 506.905 634.773 506.907C638.39 506.912 642.008 506.925 645.625 506.938C648.073 506.943 650.521 506.947 652.969 506.951C658.979 506.962 664.989 506.979 671 507C671 507.33 671 507.66 671 508C670.111 508.009 670.111 508.009 669.205 508.018C663.04 508.082 656.876 508.166 650.712 508.262C648.411 508.296 646.11 508.324 643.809 508.346C640.503 508.38 637.197 508.432 633.89 508.488C632.347 508.498 632.347 508.498 630.771 508.508C629.811 508.527 628.85 508.547 627.86 508.568C627.016 508.579 626.173 508.59 625.303 508.601C622.481 509.09 621.105 510.09 619 512C617.748 514.083 617.748 514.083 617 516C616 513 616 513 616.812 510.375C618.757 506.487 620.875 506.877 624.909 506.886Z" fill="#499C8E"/>
<path d="M647 387C647 390 647 390 645.363 391.882C644.616 392.576 643.868 393.27 643.098 393.984C642.29 394.755 641.482 395.526 640.65 396.32C638.935 397.931 637.214 399.535 635.486 401.133C630.321 405.793 630.321 405.793 627.934 412.078C627.955 413.042 627.977 414.007 628 415C627.67 415 627.34 415 627 415C625.713 411.822 625.326 409.382 626 406C629.081 402.278 632.62 399.328 636.38 396.313C638.745 394.396 640.992 392.354 643.25 390.312C644.499 389.207 645.749 388.103 647 387Z" fill="#29423F"/>
<path d="M223 207C221.441 210.793 219.058 213.114 216.125 215.938C213.512 218.461 211.093 220.88 208.867 223.754C207 226 207 226 204 227C206.1 220.746 215.555 207 223 207Z" fill="#0E3C97"/>
<path d="M272 785C280.25 785 288.5 785 297 785C295.68 785.33 294.36 785.66 293 786C292.67 786.99 292.34 787.98 292 789C289.228 788.913 286.459 788.806 283.688 788.688C282.509 788.654 282.509 788.654 281.307 788.619C280.549 788.584 279.792 788.548 279.012 788.512C278.315 788.486 277.619 788.459 276.901 788.432C275 788 275 788 272 785Z" fill="#1A2220"/>
<path d="M521 383C522.792 383.108 522.792 383.108 524.621 383.219C526.227 383.313 527.832 383.406 529.438 383.5C530.612 383.572 530.612 383.572 531.811 383.645C537.217 383.956 542.585 384.043 548 384C547.01 385.65 546.02 387.3 545 389C536.926 387.625 528.966 385.9 521 384C521 383.67 521 383.34 521 383Z" fill="#478586"/>
<path d="M530 642C528.02 642.99 528.02 642.99 526 644C526 644.66 526 645.32 526 646C526.99 646.33 527.98 646.66 529 647C527.252 647.365 525.502 647.716 523.75 648.063C522.288 648.358 522.288 648.358 520.797 648.66C518.132 648.984 516.511 648.855 514 648C514.99 648 515.98 648 517 648C517 646.68 517 645.36 517 644C516.01 643.67 515.02 643.34 514 643C516.103 642.637 518.207 642.285 520.312 641.938C521.484 641.74 522.656 641.543 523.863 641.34C527 641 527 641 530 642Z" fill="#32675B"/>
<path d="M112 796C114.469 799.704 115.452 803.32 116.688 807.562C117.044 808.733 117.044 808.733 117.408 809.928C119.123 815.755 119.123 815.755 118 818C117.01 816.68 116.02 815.36 115 814C114.01 814.33 113.02 814.66 112 815C112 808.73 112 802.46 112 796Z" fill="#CDCDCD"/>
<path d="M404 498C404.33 498 404.66 498 405 498C405.66 502.95 406.32 507.9 407 513C405.68 513 404.36 513 403 513C402.67 511.68 402.34 510.36 402 509C397.71 508.67 393.42 508.34 389 508C392.285 505.81 393.831 505.647 397.688 505.375C398.681 505.3 399.675 505.225 400.699 505.148C401.458 505.099 402.218 505.05 403 505C403.33 502.69 403.66 500.38 404 498Z" fill="#48938E"/>
<path d="M567 600C567.66 600 568.32 600 569 600C568.835 601.155 568.67 602.31 568.5 603.5C567.968 607.699 567.924 611.771 568 616C567.34 616 566.68 616 566 616C565.876 616.639 565.752 617.279 565.625 617.938C565.419 618.618 565.213 619.299 565 620C564.34 620.33 563.68 620.66 563 621C563.408 613.609 564.585 607.002 567 600Z" fill="#39796A"/>
<path d="M555 610C555.33 610 555.66 610 556 610C557.25 616.625 557.25 616.625 555 620C551.872 620.195 548.955 620.206 545.836 620.074C544.475 620.035 544.475 620.035 543.087 619.994C540.182 619.906 537.279 619.797 534.375 619.688C532.409 619.624 530.443 619.562 528.477 619.502C523.65 619.351 518.825 619.18 514 619C514 618.67 514 618.34 514 618C527.2 618 540.4 618 554 618C554.33 615.36 554.66 612.72 555 610Z" fill="#D4EFEE"/>
<path d="M468 656C468.66 656 469.32 656 470 656C469.34 658.97 468.68 661.94 468 665C468.66 665.33 469.32 665.66 470 666C470 666.99 470 667.98 470 669C471.65 668.67 473.3 668.34 475 668C475.99 669.485 475.99 669.485 477 671C472.668 671.425 470.65 671.47 467.062 668.875C465 666 465 666 464.5 662.938C465.042 659.754 465.729 658.271 468 656Z" fill="#2BA38C"/>
<path d="M469 634C469.66 634.66 470.32 635.32 471 636C470.649 636.701 470.299 637.402 469.937 638.125C468.836 641.503 469.205 643.581 470 647C472.64 647.33 475.28 647.66 478 648C478 648.33 478 648.66 478 649C470.045 649.612 470.045 649.612 466.437 647.5C464.255 643.704 464.447 641.355 465 637C467 635 467 635 469 634Z" fill="#62B7AF"/>
<path d="M409 391C419.247 399.574 419.247 399.574 423 404C423 404.66 423 405.32 423 406C418.551 405.587 416.159 402.495 413.25 399.438C412.743 398.917 412.237 398.397 411.715 397.861C410.47 396.581 409.234 395.291 408 394C408.33 393.01 408.66 392.02 409 391Z" fill="#4E8790"/>
<path d="M512.938 392.875C514.393 392.888 514.393 392.888 515.877 392.902C518.252 392.926 520.626 392.958 523 393C522.67 393.66 522.34 394.32 522 395C521.061 395.037 521.061 395.037 520.104 395.076C517.277 395.192 514.451 395.314 511.625 395.437C510.148 395.496 510.148 395.496 508.641 395.557C507.229 395.619 507.229 395.619 505.789 395.684C504.92 395.72 504.05 395.757 503.155 395.795C500.952 395.874 500.952 395.874 499 397C496.875 396.062 496.875 396.062 495 395C501.062 392.865 506.549 392.761 512.938 392.875Z" fill="#588687"/>
<path d="M603 617C606.152 618.393 608.262 620.025 610.672 622.477C611.336 623.147 612 623.817 612.684 624.508C613.366 625.206 614.047 625.905 614.75 626.625C615.447 627.331 616.145 628.038 616.863 628.766C618.58 630.506 620.292 632.251 622 634C621.01 634.33 620.02 634.66 619 635C616.325 632.383 613.662 629.755 611 627.125C610.237 626.379 609.474 625.632 608.688 624.863C607.966 624.148 607.244 623.432 606.5 622.695C605.83 622.035 605.159 621.376 604.469 620.696C603 619 603 619 603 617Z" fill="#59B892"/>
<path d="M589 604C593.449 604.413 595.841 607.505 598.75 610.562C599.257 611.083 599.763 611.603 600.285 612.139C601.53 613.419 602.766 614.709 604 616C603.01 617.485 603.01 617.485 602 619C600.161 617.214 598.328 615.422 596.5 613.625C595.713 612.863 595.713 612.863 594.91 612.086C593.568 610.762 592.28 609.384 591 608C591 607.34 591 606.68 591 606C590.34 606 589.68 606 589 606C589 605.34 589 604.68 589 604Z" fill="#54A38F"/>
<path d="M228 335C228 335.66 228 336.32 228 337C226.364 338.049 224.695 339.049 223 340C222.67 340.33 222.34 340.66 222 341C218.291 341.429 214.702 341.507 211 341C208.312 338.5 208.312 338.5 207 336C207.969 336.165 208.939 336.33 209.938 336.5C216.871 337.474 221.98 335 228 335Z" fill="#1C3146"/>
<path d="M553.25 633.875C554.328 633.893 555.405 633.911 556.516 633.93C557.745 633.964 557.745 633.964 559 634C556.671 636.882 555.467 637.912 551.766 638.609C550.025 638.679 550.025 638.679 548.25 638.75C547.08 638.807 545.909 638.863 544.703 638.922C543.365 638.961 543.365 638.961 542 639C543 636 543 636 544.672 634.82C547.636 633.776 550.114 633.807 553.25 633.875Z" fill="#7BC6BA"/>
<path d="M684 316C685.431 318.862 684.6 320.934 684 324C684.99 324.33 685.98 324.66 687 325C682.74 328.764 678.482 332.499 674 336C674.087 333.131 674.582 331.432 676.59 329.355C677.22 328.784 677.851 328.213 678.5 327.625C682.064 324.308 682.802 321.945 683 317C683.33 316.67 683.66 316.34 684 316Z" fill="#338DA3"/>
<path d="M327 232C327.66 232.33 328.32 232.66 329 233C327.792 234.976 327.792 234.976 326 237C323.823 237.454 323.823 237.454 321.332 237.391C320.439 237.378 319.547 237.365 318.627 237.352C317.698 237.318 316.769 237.285 315.812 237.25C314.872 237.232 313.932 237.214 312.963 237.195C310.641 237.148 308.321 237.082 306 237C305.67 236.34 305.34 235.68 305 235C306.754 234.927 306.754 234.927 308.543 234.852C310.091 234.776 311.639 234.701 313.188 234.625C313.956 234.594 314.725 234.563 315.518 234.531C319.801 234.311 323.024 233.722 327 232Z" fill="#1E2933"/>
<path d="M578 582C578.317 588.978 578.317 588.978 576 592C573.731 593.52 571.433 594.739 569 596C570.415 591.164 572.337 587.245 575 583C577 582 577 582 578 582Z" fill="#479586"/>
<path d="M800 904C805.28 904 810.56 904 816 904C816 904.66 816 905.32 816 906C811.052 908.804 806.383 907.774 801 907C800.67 906.01 800.34 905.02 800 904Z" fill="#1F1E1E"/>
<path d="M477 741C480.536 741.536 480.536 741.536 482 743C482.125 745.5 482.125 745.5 482 748C481 749 481 749 478.5 749.125C476 749 476 749 475 748C474.812 745.562 474.812 745.562 475 743C475.66 742.34 476.32 741.68 477 741Z" fill="#55C384"/>
<path d="M458 608C459.929 611.537 460.684 614.855 461.437 618.781C462.017 621.068 462.873 622.934 464 625C462.68 625.33 461.36 625.66 460 626C456.245 620.368 456.805 614.375 458 608Z" fill="#2C7060"/>
<path d="M693.062 338.938C694.517 338.968 694.517 338.968 696 339C696.625 341.375 696.625 341.375 697 344C696.34 344.66 695.68 345.32 695 346C692.375 345.625 692.375 345.625 690 345C689.618 343.344 689.286 341.675 689 340C690 339 690 339 693.062 338.938Z" fill="#3A5152"/>
<path d="M612 423C610.617 425.869 609.079 428.56 607.375 431.25C606.929 431.956 606.483 432.663 606.023 433.391C605.517 434.187 605.517 434.187 605 435C602.474 432.637 601.112 431.335 600 428C601.32 428.33 602.64 428.66 604 429C604 428.34 604 427.68 604 427C609.412 423 609.412 423 612 423Z" fill="#35706E"/>
<path d="M233 111C233 111.66 233 112.32 233 113C230.69 113.33 228.38 113.66 226 114C225.67 114.99 225.34 115.98 225 117C221.942 117.544 219.112 118 216 118C215.67 117.01 215.34 116.02 215 115C217.248 114.327 219.499 113.662 221.75 113C223.003 112.629 224.256 112.257 225.547 111.875C229 111 229 111 233 111Z" fill="#3B3A3B"/>
<path d="M423 447C423.33 447 423.66 447 424 447C424.027 448.437 424.047 449.875 424.063 451.312C424.074 452.113 424.086 452.914 424.098 453.738C423.902 458.267 422.056 459.944 419 463C418.67 463.99 418.34 464.98 418 466C416.535 461.496 418.136 458.42 419.938 454.25C420.228 453.553 420.519 452.855 420.818 452.137C421.536 450.42 422.267 448.71 423 447Z" fill="#457778"/>
<path d="M402 412C405.841 413.509 407.488 415.803 410 419C410.887 419.701 411.774 420.402 412.688 421.125C415 423 415 423 416 426C413.05 424.631 410.475 423.122 408 421C408 420.34 408 419.68 408 419C407.381 418.711 406.762 418.423 406.125 418.125C404 417 404 417 402 415C402 414.01 402 413.02 402 412Z" fill="#305C5C"/>
<path d="M333 222C333.66 222 334.32 222 335 222C333.729 227.467 331.673 229.914 327 233C323.125 233.812 323.125 233.812 320 234C321.604 230.792 324.803 230.37 328 229C328.33 228.34 328.66 227.68 329 227C329.66 227 330.32 227 331 227C331.66 225.35 332.32 223.7 333 222Z" fill="#1058A2"/>
<path d="M211 907C215.455 907.99 215.455 907.99 220 909C217 912 217 912 214.52 912.293C213.18 912.241 213.18 912.241 211.812 912.188C210.461 912.147 210.461 912.147 209.082 912.105C208.395 912.071 207.708 912.036 207 912C207 911.34 207 910.68 207 910C208.32 909.67 209.64 909.34 211 909C211 908.34 211 907.68 211 907Z" fill="#D2D2D2"/>
<path d="M493 626C500.26 626 507.52 626 515 626C512.319 628.681 510.608 628.387 506.875 628.625C505.779 628.7 504.684 628.775 503.555 628.852C502.29 628.925 502.29 628.925 501 629C501 628.34 501 627.68 501 627C498.36 627 495.72 627 493 627C493 626.67 493 626.34 493 626Z" fill="#569288"/>
<path d="M430 415C430.99 415.99 431.98 416.98 433 418C430.36 421.3 427.72 424.6 425 428C424 424 424 424 425.215 421.641C425.783 420.852 426.352 420.063 426.938 419.25C427.503 418.451 428.069 417.652 428.652 416.828C429.097 416.225 429.542 415.622 430 415Z" fill="#37797B"/>
<path d="M498 652C495.616 654.384 494.262 655.098 491 656C487.964 655.873 484.998 655.483 482 655C482.33 654.34 482.66 653.68 483 653C487.961 651.76 492.924 651.898 498 652Z" fill="#5ABDAD"/>
<path d="M637 651C640.626 651.57 642.255 652.924 644.75 655.562C645.364 656.203 645.977 656.844 646.609 657.504C647.068 657.998 647.527 658.491 648 659C647.01 659.66 646.02 660.32 645 661C643.661 659.715 642.329 658.421 641 657.125C639.886 656.046 639.886 656.046 638.75 654.945C637 653 637 653 637 651Z" fill="#42AD69"/>
<path d="M189 897C192.3 898.65 195.6 900.3 199 902C195.772 904.152 194.716 904.201 191 904C191 903.34 191 902.68 191 902C190.34 902 189.68 902 189 902C188.67 901.01 188.34 900.02 188 899C188.33 898.34 188.66 897.68 189 897Z" fill="#CBCBCB"/>
<path d="M915 771C918 774 918 774 918.438 777.438C918 781 918 781 914 785C914.33 780.38 914.66 775.76 915 771Z" fill="#CFCFCF"/>
<path d="M246 236C245.457 236.352 244.915 236.704 244.355 237.066C239.282 240.567 236.884 243.112 235 249C234.67 249 234.34 249 234 249C233.75 242.375 233.75 242.375 236 239C236.99 239 237.98 239 239 239C239 238.34 239 237.68 239 237C242.625 234.875 242.625 234.875 246 236Z" fill="#0D459D"/>
<path d="M485 648C483.515 649.485 483.515 649.485 482 651C483.32 651.66 484.64 652.32 486 653C481.71 653.66 477.42 654.32 473 655C473 654.34 473 653.68 473 653C475.31 653 477.62 653 480 653C480 652.01 480 651.02 480 650C478.68 649.67 477.36 649.34 476 649C478.957 647.522 481.742 647.94 485 648Z" fill="#264D44"/>
<path d="M437 588C437 591.604 435.914 593.014 434 596C433.67 596.66 433.34 597.32 433 598C432.381 598.144 431.762 598.289 431.125 598.438C428.633 599.097 427.667 600.083 426 602C425.34 601.67 424.68 601.34 424 601C428.29 596.71 432.58 592.42 437 588Z" fill="#2D6E5E"/>
<path d="M663 344C663 347 663 347 660.883 349.48C659.973 350.374 659.063 351.267 658.125 352.188C657.22 353.089 656.315 353.99 655.383 354.918C653 357 653 357 651 357C651.376 354.363 651.749 353.23 653.742 351.402C654.798 350.677 654.798 350.677 655.875 349.938C658.494 348.116 660.807 346.324 663 344Z" fill="#499AAA"/>
<path d="M106 239C107.485 239.99 107.485 239.99 109 241C109.328 243.094 109.328 243.094 109.25 245.5C109.235 246.294 109.219 247.088 109.203 247.906C109 250 109 250 108 252C107.34 252 106.68 252 106 252C106 247.71 106 243.42 106 239Z" fill="#E2E2E2"/>
<path d="M904 209C904.99 209.33 905.98 209.66 907 210C907.73 211.848 907.73 211.848 908.188 214.062C908.346 214.796 908.505 215.529 908.668 216.285C908.832 217.134 908.832 217.134 909 218C908.01 217.67 907.02 217.34 906 217C906 217.66 906 218.32 906 219C905.34 219 904.68 219 904 219C904 215.7 904 212.4 904 209Z" fill="#2B2B2B"/>
<path d="M904 203C904.99 203.33 905.98 203.66 907 204C907 204.66 907 205.32 907 206C907.66 206 908.32 206 909 206C909.977 212.055 909.977 212.055 910 214C909.34 214.66 908.68 215.32 908 216C907.329 214.21 906.664 212.418 906 210.625C905.629 209.627 905.257 208.63 904.875 207.602C904 205 904 205 904 203Z" fill="#E2E2E2"/>
<path d="M615 517C615.33 517 615.66 517 616 517C616.284 522.82 615.809 527.925 611.875 532.438C611.256 532.953 610.637 533.469 610 534C610.689 530.089 611.783 526.445 613.062 522.688C613.425 521.619 613.787 520.55 614.16 519.449C614.437 518.641 614.714 517.833 615 517Z" fill="#478E7F"/>
<path d="M405 465C405.66 465.33 406.32 465.66 407 466C406.34 469.63 405.68 473.26 405 477C402 474 402 474 401.625 471C402 468 402 468 403.5 466.125C403.995 465.754 404.49 465.382 405 465Z" fill="#317A77"/>
<path d="M349 332C353.274 333.583 355.265 336.506 358 340C357.34 340.66 356.68 341.32 356 342C354.824 340.905 353.66 339.799 352.5 338.688C351.525 337.765 351.525 337.765 350.531 336.824C349 335 349 335 349 332Z" fill="#1E6A9C"/>
<path d="M620 635C624.82 635.413 626.91 637.38 630 641C630 641.66 630 642.32 630 643C626.401 642.444 625.001 641.251 622.75 638.438C622.229 637.797 621.708 637.156 621.172 636.496C620.785 636.002 620.398 635.509 620 635Z" fill="#51AF81"/>
<path d="M608 400C606.344 403.588 604.372 406.838 602 410C601.01 410 600.02 410 599 410C600.317 405.811 603.025 400 608 400Z" fill="#488789"/>
<path d="M500 642C500.33 642.66 500.66 643.32 501 644C501.99 644.33 502.98 644.66 504 645C502.419 645.365 500.835 645.717 499.25 646.062C498.368 646.26 497.487 646.457 496.578 646.66C494.013 646.998 492.429 646.812 490 646C490.99 646 491.98 646 493 646C493 645.01 493 644.02 493 643C496.465 642.505 496.465 642.505 500 642Z" fill="#6DBBB1"/>
<path d="M490 397C488.824 397.433 488.824 397.433 487.625 397.875C484.903 398.849 484.903 398.849 483 401C480.398 401.414 480.398 401.414 477.375 401.625C476.372 401.7 475.369 401.774 474.336 401.851C473.18 401.925 473.18 401.925 472 402C474.47 399.53 476.575 398.93 479.875 397.812C480.924 397.448 481.974 397.083 483.055 396.707C485.936 396.015 487.278 395.968 490 397Z" fill="#497979"/>
<path d="M518 626C517.67 626.99 517.34 627.98 517 629C512.237 629.953 507.833 630.083 503 630C505.386 627.614 506.668 627.48 509.938 626.875C510.813 626.707 511.688 626.54 512.59 626.367C515 626 515 626 518 626Z" fill="#A4D7D5"/>
<path d="M438 426C438 426.99 438 427.98 438 429C438.66 429.66 439.32 430.32 440 431C439.67 431.66 439.34 432.32 439 433C437.337 433.35 435.67 433.682 434 434C433.01 434.66 432.02 435.32 431 436C432.668 432.059 435.227 429.211 438 426Z" fill="#3A696C"/>
<path d="M816 907C816 908.667 816 910.333 816 912C814.02 912 812.04 912 810 912C810 911.34 810 910.68 810 910C809.34 909.34 808.68 908.68 808 908C813.75 905.875 813.75 905.875 816 907Z" fill="#C4C3C4"/>
<path d="M468 656C468.66 656 469.32 656 470 656C469.34 659.3 468.68 662.6 468 666C467.01 666 466.02 666 465 666C464.77 662.633 464.66 660.586 466.375 657.625C466.911 657.089 467.447 656.553 468 656Z" fill="#31A892"/>
<path d="M372 625C372.66 625.33 373.32 625.66 374 626C374 628.31 374 630.62 374 633C372.02 633.99 372.02 633.99 370 635C369.82 631.053 369.906 628.402 372 625Z" fill="#6BBBB5"/>
<path d="M499 689C499 689.99 499 690.98 499 692C492.714 694.429 492.714 694.429 489 693C490.32 692.67 491.64 692.34 493 692C493 691.34 493 690.68 493 690C495 689 495 689 499 689Z" fill="#17372C"/>
<path d="M370 651C370.66 651.99 371.32 652.98 372 654C369.69 655.98 367.38 657.96 365 660C364.67 659.01 364.34 658.02 364 657C365.98 655.02 367.96 653.04 370 651Z" fill="#2F9C82"/>
<path d="M527.25 646.937C528.142 646.946 529.034 646.955 529.953 646.965C530.629 646.976 531.304 646.988 532 647C532 647.33 532 647.66 532 648C525.852 649.628 520.36 650.202 514 650C518.527 647.575 522.122 646.87 527.25 646.937Z" fill="#69C3B3"/>
<path d="M620.312 416.187C621.643 416.59 621.643 416.59 623 417C622.227 417.34 622.227 417.34 621.438 417.687C618.076 419.497 615.071 421.74 612 424C612 421 612 421 614.125 418.25C617 416 617 416 620.312 416.187Z" fill="#2F5958"/>
<path d="M914 242C915.333 242 916.667 242 918 242C918.196 246.219 917.802 249.17 916 253C915.67 253 915.34 253 915 253C914.67 249.37 914.34 245.74 914 242Z" fill="#D3D3D3"/>
<path d="M813 117C813 117.99 813 118.98 813 120C809.7 120 806.4 120 803 120C805.215 115.569 808.662 115.795 813 117Z" fill="#1C1B1B"/>
<path d="M113 222C113.66 222 114.32 222 115 222C114.858 223.438 114.711 224.875 114.562 226.312C114.481 227.113 114.4 227.914 114.316 228.738C114 231 114 231 113 234C112.34 234 111.68 234 111 234C112 225.429 112 225.429 113 222Z" fill="#404040"/>
<path d="M682 688C684.97 688.33 687.94 688.66 691 689C691 689.66 691 690.32 691 691C687.7 691.33 684.4 691.66 681 692C681.33 690.68 681.66 689.36 682 688Z" fill="#181D1C"/>
<path d="M352 671C352 674.3 352 677.6 352 681C349.908 678.21 348.424 676.068 347 673C350 671 350 671 352 671Z" fill="#35AC8F"/>
<path d="M433 562C435.648 564.578 437.944 566.916 440 570C439.01 570.495 439.01 570.495 438 571C436.667 569.667 435.333 568.333 434 567C433.34 567 432.68 567 432 567C432.33 565.35 432.66 563.7 433 562Z" fill="#358976"/>
<path d="M425 552C428.288 555.11 430.837 558.016 433 562C432.01 561.67 431.02 561.34 430 561C429.67 560.34 429.34 559.68 429 559C427.68 559 426.36 559 425 559C425 556.69 425 554.38 425 552Z" fill="#3A8D79"/>
<path d="M609 530C609.66 530.33 610.32 530.66 611 531C609.02 535.455 609.02 535.455 607 540C606.34 539.67 605.68 539.34 605 539C605.531 535.179 606.497 532.938 609 530Z" fill="#D5ECEA"/>
<path d="M602 451C604.565 453.565 604.54 455.477 605 459C604.34 459 603.68 459 603 459C603 460.32 603 461.64 603 463C602.34 462.67 601.68 462.34 601 462C600.875 454.375 600.875 454.375 602 451Z" fill="#457975"/>
<path d="M367 350C370.367 351.393 371.986 352.979 374 356C373.34 356.66 372.68 357.32 372 358C369.5 355.688 369.5 355.688 367 353C367 352.01 367 351.02 367 350Z" fill="#3279A1"/>
<path d="M210 217C211 219 211 219 210.375 221.438C208.723 224.516 207.082 225.459 204 227C205.37 223.005 207.257 220.2 210 217Z" fill="#10398A"/>
<path d="M896 190C896.66 190 897.32 190 898 190C898.95 193.695 898.95 196.305 898 200C897.34 200 896.68 200 896 200C895.806 198.522 895.62 197.042 895.438 195.562C895.333 194.739 895.229 193.915 895.121 193.066C895.081 192.384 895.041 191.703 895 191C895.33 190.67 895.66 190.34 896 190Z" fill="#1F1F1F"/>
<path d="M458 608C460.12 611.534 460.532 614.944 461 619C460.01 619 459.02 619 458 619C456.626 615.182 457.32 611.927 458 608Z" fill="#3A8574"/>
<path d="M421 512C421 515.96 421 519.92 421 524C418.542 520.313 417.988 517.303 417 513C420 512 420 512 421 512Z" fill="#3C6D6C"/>
<path d="M887 850C887.33 850.66 887.66 851.32 888 852C885.436 856.179 882.981 859.125 879 862C880.41 858.961 882.089 856.406 884.125 853.75C884.933 852.69 884.933 852.69 885.758 851.609C886.168 851.078 886.578 850.547 887 850Z" fill="#BEBDBE"/>
<path d="M564 610C566.3 613.45 566.431 614.946 566 619C565.01 619.66 564.02 620.32 563 621C563.33 617.37 563.66 613.74 564 610Z" fill="#468074"/>
<path d="M469 609C469.99 609 470.98 609 472 609C472 611.64 472 614.28 472 617C471.01 616.67 470.02 616.34 469 616C469 613.69 469 611.38 469 609Z" fill="#35746B"/>
<path d="M578 582C578.125 584.875 578.125 584.875 578 588C577.34 588.66 576.68 589.32 576 590C576 589.34 576 588.68 576 588C575.34 588 574.68 588 574 588C574.375 585.562 574.375 585.562 575 583C577 582 577 582 578 582Z" fill="#3B8D7D"/>
<path d="M478 386C481.63 386 485.26 386 489 386C489 386.33 489 386.66 489 387C484.71 387.99 480.42 388.98 476 390C476.66 388.68 477.32 387.36 478 386Z" fill="#408285"/>
<path d="M694 339C694.99 339.33 695.98 339.66 697 340C696.67 341.65 696.34 343.3 696 345C694.68 345.33 693.36 345.66 692 346C692.66 343.69 693.32 341.38 694 339Z" fill="#364B4B"/>
<path d="M216 116C216.33 116.99 216.66 117.98 217 119C216 120 216 120 212.438 120.062C211.303 120.042 210.169 120.021 209 120C212.625 116 212.625 116 216 116Z" fill="#1E1D1D"/>
<path d="M908 806C910 808 910 808 910.125 811.125C910.084 812.074 910.043 813.022 910 814C908.68 814.33 907.36 814.66 906 815C906.66 812.03 907.32 809.06 908 806Z" fill="#C2C3C2"/>
<path d="M551 634C552.945 633.707 552.945 633.707 555.125 633.813C556.404 633.874 557.683 633.936 559 634C557.938 635.5 557.938 635.5 556 637C552.312 637.188 552.312 637.188 549 637C549.66 636.01 550.32 635.02 551 634Z" fill="#81CDC2"/>
<path d="M512 688C508.914 690.269 507.578 691.054 503.688 690.687C502.801 690.461 501.914 690.234 501 690C504.277 686.723 507.703 686.568 512 688Z" fill="#1B3C30"/>
<path d="M347 674C348.5 675.125 348.5 675.125 350 677C350.312 680.062 350.312 680.062 350 683C349.34 683.66 348.68 684.32 348 685C346.824 681.326 346.926 677.831 347 674Z" fill="#20342F"/>
<path d="M519 624C521.97 624 524.94 624 528 624C527.67 624.66 527.34 625.32 527 626C524.934 626.414 524.934 626.414 522.438 626.625C521.611 626.7 520.785 626.775 519.934 626.852C518.976 626.925 518.976 626.925 518 627C518.33 626.01 518.66 625.02 519 624Z" fill="#BEE6E5"/>
<path d="M422 427C422.66 427.66 423.32 428.32 424 429C422.35 431.64 420.7 434.28 419 437C417.667 434.333 418.329 432.833 419 430C419.66 430 420.32 430 421 430C421.33 429.01 421.66 428.02 422 427Z" fill="#36797A"/>
<path d="M305 409C302.033 410.648 299.344 411.443 296 412C295.67 411.34 295.34 410.68 295 410C298.578 407.661 300.922 408.073 305 409Z" fill="#5B9AC5"/>
<path d="M776 784C777.32 784 778.64 784 780 784C780 785.32 780 786.64 780 788C778.35 788 776.7 788 775 788C775.33 786.68 775.66 785.36 776 784Z" fill="#1B261D"/>
<path d="M603 617C605.867 618.285 607.976 619.571 610 622C610 622.66 610 623.32 610 624C607.133 622.715 605.024 621.429 603 619C603 618.34 603 617.68 603 617Z" fill="#62B99C"/>
<path d="M618 508C619.65 508 621.3 508 623 508C622.072 508.866 622.072 508.866 621.125 509.75C619.187 511.802 618.1 513.434 617 516C615.792 512.377 616.457 511.359 618 508Z" fill="#40887A"/>
<path d="M402 508C403.32 508 404.64 508 406 508C406.33 509.65 406.66 511.3 407 513C405.68 513 404.36 513 403 513C402.67 511.35 402.34 509.7 402 508Z" fill="#368176"/>
<path d="M546 386C545.67 386.99 545.34 387.98 545 389C542.69 388.67 540.38 388.34 538 388C540.559 385.441 542.622 384.311 546 386Z" fill="#4B8789"/>
<path d="M229 329C229.99 329.33 230.98 329.66 232 330C228.375 334.875 228.375 334.875 225 336C225.66 334.35 226.32 332.7 227 331C227.66 331 228.32 331 229 331C229 330.34 229 329.68 229 329Z" fill="#105AA0"/>
<path d="M845 127C846.32 127.66 847.64 128.32 849 129C847.688 130.5 847.688 130.5 846 132C845.01 132 844.02 132 843 132C843.875 128.125 843.875 128.125 845 127Z" fill="#F7F8F7"/>
<path d="M469 634C469.66 634.66 470.32 635.32 471 636C469.68 637.65 468.36 639.3 467 641C466.67 639.35 466.34 637.7 466 636C466.99 635.34 467.98 634.68 469 634Z" fill="#70C1BA"/>
<path d="M532 622C533.65 622 535.3 622 537 622C536.67 622.99 536.34 623.98 536 625C534.02 625.33 532.04 625.66 530 626C530.66 624.68 531.32 623.36 532 622Z" fill="#C2E9E8"/>
<path d="M801 498C799.938 499.5 799.938 499.5 798 501C794.312 501.188 794.312 501.188 791 501C793.705 497.182 796.621 497.752 801 498Z" fill="#21BF6A"/>
<path d="M539 384C541.97 384 544.94 384 548 384C544.393 385.803 541.916 386.466 538 387C538.33 386.01 538.66 385.02 539 384Z" fill="#2D6B70"/>
<path d="M537 696C537.99 696 538.98 696 540 696C538.951 698.622 538.351 699.794 535.875 701.25C535.256 701.498 534.637 701.745 534 702C535 700 536 698 537 696Z" fill="#21BA84"/>
<path d="M602 519C602.99 519 603.98 519 605 519C604.34 521.31 603.68 523.62 603 526C602.67 525.34 602.34 524.68 602 524C601.34 523.67 600.68 523.34 600 523C600.66 521.68 601.32 520.36 602 519Z" fill="#3F6E6A"/>
<path d="M593 436C595.799 438.528 597.458 440.204 598 444C597.01 444 596.02 444 595 444C594.34 441.36 593.68 438.72 593 436Z" fill="#3A706E"/>
<path d="M576 417C577.485 417.99 577.485 417.99 579 419C578.67 420.65 578.34 422.3 578 424C576.438 422.75 576.438 422.75 575 421C575.312 418.812 575.312 418.812 576 417Z" fill="#316263"/>
<path d="M195 124C197.475 124.99 197.475 124.99 200 126C200 126.66 200 127.32 200 128C198.02 128 196.04 128 194 128C194.33 126.68 194.66 125.36 195 124Z" fill="#1D1C1D"/>
<path d="M218 111C219.98 111 221.96 111 224 111C224 111.66 224 112.32 224 113C221.69 113.33 219.38 113.66 217 114C217.33 113.01 217.66 112.02 218 111Z" fill="#F8F7F8"/>
</g>
<defs>
<clipPath id="clip0_102_915">
<rect width="1024" height="1024" fill="white"/>
</clipPath>
</defs>
</svg>
