<svg width="1024" height="1024" viewBox="0 0 1024 1024" fill="none" xmlns="http://www.w3.org/2000/svg">
<path d="M573.063 413.688C574.73 415.1 576.374 416.54 578 418C578.499 418.439 578.997 418.878 579.511 419.33C596.407 434.393 608.381 455.623 610.288 478.448C610.4 481.95 610.417 485.434 610.375 488.938C610.364 490.169 610.353 491.4 610.342 492.669C610.08 507.576 606.587 518.796 600 532C598.637 534.988 597.319 537.992 596 541C595.34 541 594.68 541 594 541C593.66 542.33 593.66 542.33 593.313 543.688C591.795 547.517 589.925 549.13 587 552C574.567 566.965 562.84 583.948 558 603C557.629 604.196 557.258 605.393 556.875 606.625C555.735 610.724 555.735 610.724 555 618C526.62 618 498.24 618 469 618C468.01 612.39 467.02 606.78 466 601C464.45 596.8 462.94 592.984 461 589C460.608 588.152 460.216 587.304 459.813 586.43C455.46 577.295 449.972 569.088 443.688 561.188C422.582 534.634 411.81 509.752 414.273 475.16C416.525 457.98 424.714 441.067 436 428C436.58 427.277 437.16 426.554 437.758 425.809C471.039 385.773 532.998 383.042 573.063 413.688Z" fill="#FAFCFC"/>
<path d="M264.043 196.566C265.663 196.562 267.284 196.557 268.904 196.551C272.279 196.542 275.653 196.544 279.027 196.554C283.331 196.565 287.634 196.545 291.937 196.516C295.276 196.498 298.614 196.498 301.952 196.504C303.538 196.504 305.124 196.498 306.711 196.485C316.216 196.421 324.4 196.608 332.191 202.719C336.026 207.701 336.812 211.842 336.441 218.102C335.504 224.255 333.357 228.318 328.416 232.187C322.137 236.208 315.402 235.779 308.218 235.667C305.732 235.628 303.248 235.627 300.762 235.635C295.487 235.644 290.212 235.605 284.937 235.563C278.816 235.518 272.696 235.493 266.574 235.507C264.137 235.504 261.7 235.47 259.263 235.435C249.315 235.313 249.315 235.313 240.442 239.435C236.342 243.884 235.566 247.693 235.631 253.601C235.627 254.35 235.624 255.098 235.62 255.87C235.613 257.489 235.614 259.109 235.62 260.729C235.629 263.299 235.619 265.868 235.603 268.437C235.563 275.74 235.562 283.043 235.564 290.346C235.564 294.819 235.545 299.292 235.515 303.765C235.504 306.287 235.516 308.808 235.529 311.33C235.497 325.558 235.497 325.558 231 332C225.122 337.584 220.252 338.566 212.273 338.449C207.29 337.765 204.355 335.648 201 332C197.111 326.73 196.873 322.205 196.839 315.76C196.834 315.037 196.829 314.315 196.824 313.57C196.809 311.182 196.802 308.794 196.797 306.406C196.791 304.737 196.785 303.067 196.78 301.398C196.769 297.894 196.763 294.39 196.76 290.887C196.754 286.426 196.73 281.966 196.702 277.506C196.683 274.053 196.678 270.601 196.676 267.149C196.673 265.506 196.665 263.864 196.652 262.221C196.518 244.22 199.925 227.37 212.84 213.957C227.908 200.306 244.251 196.517 264.043 196.566Z" fill="#0A4CB5"/>
<path d="M708.836 196.839C709.873 196.831 709.873 196.831 710.931 196.824C713.222 196.809 715.513 196.802 717.805 196.797C719.406 196.791 721.007 196.785 722.608 196.78C725.973 196.769 729.337 196.763 732.701 196.76C736.979 196.754 741.256 196.73 745.534 196.702C748.847 196.683 752.161 196.678 755.474 196.676C757.049 196.673 758.623 196.665 760.198 196.652C772.915 196.553 784.89 197.701 796.313 203.75C796.991 204.104 797.67 204.457 798.369 204.821C812.796 212.562 821.29 225.525 826 241C827.021 245.162 827.166 249.214 827.193 253.477C827.205 254.581 827.205 254.581 827.218 255.707C827.242 258.131 827.259 260.556 827.273 262.98C827.279 263.813 827.284 264.645 827.29 265.503C827.316 269.911 827.336 274.318 827.35 278.726C827.363 282.358 827.391 285.99 827.432 289.622C827.482 294.024 827.506 298.426 827.513 302.828C827.52 304.497 827.535 306.166 827.559 307.835C827.798 325.367 827.798 325.367 822 333C816.924 337.734 811.463 338.361 804.789 338.273C799.896 337.794 796.829 336.053 793.5 332.316C789.329 326.806 788.877 322.619 788.874 315.696C788.872 314.967 788.87 314.238 788.868 313.487C788.864 311.907 788.862 310.327 788.862 308.747C788.859 305.38 788.837 302.013 788.817 298.646C788.779 292.382 788.747 286.118 788.75 279.854C788.75 275.492 788.727 271.131 788.688 266.769C788.677 265.112 788.676 263.455 788.683 261.798C788.945 250.587 788.945 250.587 784.754 240.436C779.743 236.333 774.763 235.627 768.448 235.647C767.728 235.645 767.008 235.643 766.267 235.64C764.716 235.637 763.165 235.641 761.615 235.65C759.154 235.664 756.695 235.658 754.234 235.646C747.244 235.615 740.253 235.619 733.263 235.64C728.975 235.651 724.688 235.637 720.4 235.61C718.774 235.604 717.148 235.608 715.522 235.622C698.896 235.762 698.896 235.762 693 230C687.979 224.466 687.261 219.398 687.586 211.992C688.254 207.163 690.022 204.641 693.719 201.574C698.778 197.769 702.448 196.874 708.836 196.839Z" fill="#0E8FA1"/>
<path d="M816.312 687.062C820.93 690.392 824.867 694.667 827 700C827.267 703.31 827.267 703.31 827.29 707.3C827.297 708.029 827.304 708.758 827.311 709.51C827.33 711.921 827.334 714.331 827.336 716.742C827.342 718.429 827.349 720.116 827.356 721.803C827.368 725.346 827.372 728.888 827.371 732.431C827.37 736.934 827.398 741.436 827.432 745.939C827.455 749.429 827.458 752.919 827.457 756.409C827.46 758.067 827.468 759.724 827.484 761.382C827.65 780.83 822.848 797.485 809.195 811.906C798.327 822.188 783.376 827.063 768.653 827.177C767.588 827.187 767.588 827.187 766.502 827.197C764.171 827.216 761.839 827.228 759.508 827.238C758.707 827.242 757.906 827.246 757.081 827.251C752.844 827.271 748.607 827.286 744.371 827.295C740.011 827.306 735.651 827.341 731.291 827.38C727.923 827.406 724.555 827.415 721.187 827.418C719.58 827.423 717.973 827.435 716.367 827.453C699.059 827.642 699.059 827.642 692.5 821.623C688.162 816.895 686.383 811.551 686.555 805.152C687.696 799.635 691.335 795.316 695.655 791.9C699.59 789.665 701.923 789.506 706.423 789.518C707.141 789.514 707.859 789.51 708.599 789.506C710.149 789.5 711.699 789.503 713.249 789.514C715.71 789.531 718.169 789.524 720.63 789.51C726.742 789.48 732.853 789.493 738.965 789.505C744.132 789.513 749.299 789.505 754.466 789.476C756.877 789.469 759.288 789.485 761.699 789.503C772.925 789.552 772.925 789.552 783 785C787.351 779.67 788.145 775.409 788.11 768.734C788.111 767.206 788.111 765.679 788.112 764.151C788.11 763.341 788.109 762.532 788.107 761.698C788.104 757.4 788.13 753.102 788.15 748.805C788.175 743.34 788.19 737.876 788.175 732.412C788.163 727.993 788.181 723.574 788.217 719.155C788.226 717.477 788.224 715.798 788.211 714.12C788.097 698.289 788.097 698.289 793.403 691.6C799.887 685.103 807.621 684.275 816.312 687.062Z" fill="#27D864"/>
<path d="M223.301 686.668C228.375 688.856 231.393 692.177 234 697C235.167 700.501 235.137 703.641 235.126 707.282C235.128 708.021 235.13 708.759 235.132 709.52C235.136 711.124 235.138 712.729 235.138 714.333C235.142 717.75 235.163 721.166 235.183 724.583C235.221 730.943 235.253 737.303 235.25 743.663C235.25 748.089 235.273 752.514 235.312 756.94C235.323 758.622 235.324 760.304 235.317 761.986C235.012 773.28 235.012 773.28 239.246 783.475C244.54 788.078 248.657 789.5 255.644 789.467C256.738 789.47 256.738 789.47 257.855 789.473C259.427 789.476 260.999 789.47 262.57 789.455C265.065 789.433 267.557 789.437 270.052 789.448C276.244 789.469 282.436 789.452 288.628 789.426C293.868 789.405 299.108 789.403 304.348 789.429C306.794 789.433 309.239 789.409 311.686 789.384C326.245 789.37 326.245 789.37 332 795C335.483 799.302 337.444 804.114 337.062 809.687C336.008 815.264 333.714 819.374 329.562 823.312C324.548 826.615 320.596 827.258 314.602 827.306C313.874 827.315 313.147 827.323 312.397 827.332C309.996 827.356 307.596 827.364 305.195 827.371C303.512 827.38 301.829 827.389 300.145 827.398C296.613 827.415 293.081 827.423 289.549 827.425C285.063 827.431 280.577 827.468 276.092 827.514C272.61 827.544 269.128 827.551 265.646 827.552C263.995 827.556 262.344 827.569 260.693 827.59C241.813 827.812 226.37 822.608 212.324 809.488C198.541 794.732 196.682 777.842 196.664 758.582C196.658 756.913 196.651 755.244 196.644 753.575C196.632 750.096 196.628 746.618 196.629 743.139C196.63 738.697 196.602 734.256 196.568 729.815C196.546 726.375 196.542 722.936 196.543 719.496C196.54 717.859 196.531 716.222 196.516 714.584C196.364 696.921 196.364 696.921 202.973 689.906C209.591 685.453 215.566 684.422 223.301 686.668Z" fill="#13AD89"/>
<path d="M579.895 407.371C599.93 424.017 615.368 446.748 619 473C620.716 494.646 618.845 516.845 608.5 536.25C608.064 537.071 607.628 537.893 607.179 538.739C603.273 545.884 598.636 552.112 593.404 558.326C583.731 569.856 574.431 581.81 569 596C568.737 596.656 568.474 597.312 568.203 597.988C566.121 603.63 565.079 609.416 564.09 615.328C563.437 619.13 562.457 622.442 561 626C561.041 626.99 561.083 627.98 561.125 629C561 632 561 632 559.688 634.75C556.785 637.18 555.623 637.451 551.993 638.039C550.517 638.284 550.517 638.284 549.01 638.533C548.017 638.687 547.023 638.841 546 639C544.69 639.208 544.69 639.208 543.354 639.421C540.71 639.834 538.065 640.23 535.418 640.621C534.443 640.766 533.467 640.912 532.462 641.062C530.408 641.368 528.353 641.673 526.298 641.977C523.233 642.431 520.168 642.888 517.104 643.346C511.071 644.244 505.036 645.126 499 646C497.985 646.148 496.97 646.296 495.924 646.448C492.947 646.879 489.968 647.302 486.988 647.723C486.1 647.852 485.211 647.981 484.295 648.115C470.622 650.014 470.622 650.014 466.5 647.437C464.39 644.009 464.375 641.958 465 638C468.615 633.409 471.882 632.109 477.504 631.418C478.223 631.314 478.942 631.21 479.683 631.103C481.202 630.888 482.723 630.682 484.244 630.486C486.535 630.191 488.819 629.865 491.104 629.533C499.44 628.361 507.562 627.677 516 628C516 627.34 516 626.68 516 626C498.84 626 481.68 626 464 626C460.64 619.279 460.64 619.279 459.895 615.418C459.72 614.576 459.545 613.734 459.365 612.867C459.091 611.541 459.091 611.541 458.813 610.187C455.569 595.492 449.414 582.346 440 570.562C439.519 569.953 439.039 569.344 438.544 568.717C436.092 565.612 433.619 562.527 431.113 559.465C414.225 538.683 404.86 515.832 404.75 488.937C404.729 487.703 404.709 486.469 404.688 485.197C404.587 461.166 414.268 440.518 429 422C429.677 421.129 430.354 420.257 431.051 419.359C434.01 415.778 437.416 412.94 441 410C441.855 409.296 442.709 408.592 443.59 407.867C483.564 376.392 539.594 375.908 579.895 407.371ZM447 417C446.303 417.565 445.605 418.129 444.887 418.711C428.328 432.408 416.384 455.189 414.196 476.519C411.762 507.282 420.5 532.597 439.973 556.269C450.209 568.757 458.97 581.857 464.055 597.262C464.736 599.881 464.736 599.881 466 601C466.99 606.61 467.98 612.22 469 618C497.38 618 525.76 618 555 618C555.66 613.38 556.32 608.76 557 604C557.903 601.163 558.813 598.689 560 596C560.338 595.112 560.676 594.224 561.023 593.309C565.797 581.022 573.13 570.488 581 560C581.812 558.895 582.623 557.79 583.434 556.684C584.247 555.58 585.061 554.478 585.875 553.375C586.985 551.871 586.985 551.871 588.117 550.336C590 548 590 548 592 547C592.727 545.021 593.398 543.02 594 541C594.66 541 595.32 541 596 541C596.262 540.415 596.524 539.83 596.794 539.227C597.987 536.568 599.181 533.909 600.375 531.25C600.788 530.33 601.2 529.409 601.625 528.461C602.025 527.571 602.424 526.682 602.836 525.766C603.203 524.949 603.569 524.132 603.947 523.29C604.632 521.8 605.343 520.321 606.082 518.856C614.156 502.528 612.104 477.076 606.613 460.266C597.266 434.55 578.824 413.78 554.064 402.026C518.398 385.975 476.74 391.304 447 417Z" fill="#6CB9CC"/>
<path d="M559.188 646.063C561 649 561 649 561.062 652.625C559.874 656.401 559.295 657.034 556 659C553.446 659.665 553.446 659.665 550.57 660.07C549.506 660.227 548.441 660.383 547.345 660.544C546.241 660.695 545.137 660.845 544 661C542.95 661.153 541.901 661.306 540.819 661.464C537.506 661.946 534.191 662.412 530.875 662.875C516.062 664.967 501.28 667.24 486.5 669.546C485.343 669.726 484.187 669.905 482.996 670.09C481.945 670.254 480.893 670.417 479.81 670.586C471.185 671.857 471.185 671.857 467.062 668.875C465 666 465 666 464.375 663C465.027 659.87 465.9 658.329 468.215 656.142C472.091 653.663 476.798 653.457 481.273 652.867C482.388 652.704 483.503 652.54 484.652 652.372C488.224 651.854 491.799 651.364 495.375 650.875C497.711 650.54 500.047 650.202 502.383 649.863C508.136 649.034 513.893 648.237 519.652 647.456C522.938 647.009 526.221 646.55 529.505 646.091C531.537 645.813 533.569 645.535 535.602 645.258C536.508 645.13 537.415 645.001 538.349 644.869C554.093 642.766 554.093 642.766 559.188 646.063Z" fill="#46C1AC"/>
<path d="M550.25 665.562C552.052 665.533 552.052 665.533 553.891 665.504C557.601 666.096 558.774 667.024 561 670C561.562 672.938 561.562 672.938 561 676C557.285 680.399 554.843 682.002 549.252 682.624C548.265 682.737 547.278 682.85 546.261 682.967C545.186 683.087 544.111 683.208 543.004 683.332C533.952 684.381 524.923 685.53 515.902 686.824C514.833 686.977 513.763 687.13 512.661 687.287C508.304 687.912 503.948 688.541 499.593 689.174C496.342 689.646 493.091 690.11 489.84 690.574C488.866 690.718 487.892 690.862 486.888 691.01C472.703 693.022 472.703 693.022 468.5 690.5C466.703 687.506 466.485 685.431 466.371 682C467.394 678.746 469.123 677.761 472 676C474.882 675.171 477.775 674.837 480.75 674.5C481.64 674.385 482.531 674.271 483.448 674.152C486.63 673.748 489.814 673.373 493 673C498.158 672.388 498.158 672.388 503.316 671.773C506.851 671.351 510.386 670.934 513.923 670.533C520.841 669.734 527.66 668.743 534.496 667.402C539.789 666.366 544.847 665.568 550.25 665.562Z" fill="#1FBD8C"/>
<path d="M465.379 308.711C468.092 310.045 470.669 311.49 473.25 313.062C474.557 313.853 474.557 313.853 475.891 314.66C478 316 478 316 479 317C479.694 322.91 480.365 329.145 479 335C476.14 338.362 473.119 339.602 469 341C468.002 341.588 468.002 341.588 466.984 342.187C463.399 343.656 460.437 342.14 456.887 341.004C453.201 339.343 450.777 337.966 448 335C446.087 329.297 446.339 322.746 448 317C450.229 313.983 452.521 313.178 456 312C457.242 311.207 458.472 310.395 459.688 309.562C463 308 463 308 465.379 308.711Z" fill="#65ACD1"/>
<path d="M697.594 550.106C698.388 550.401 699.182 550.696 700 551C700.955 551.317 701.91 551.634 702.894 551.961C706.406 553.663 708.513 554.954 711 558C712.413 564.206 711.62 570.73 711 577C708.805 578.401 706.598 579.77 704.375 581.125C703.757 581.523 703.14 581.922 702.504 582.332C699.293 584.259 697.605 585.123 693.875 584.363C692.926 583.913 691.977 583.464 691 583C690.085 582.723 689.169 582.446 688.227 582.16C684.962 580.783 683.231 579.798 681 577C679.701 570.783 680.441 564.272 681 558C683.219 556.627 685.448 555.277 687.687 553.938C688.313 553.548 688.939 553.158 689.584 552.756C692.342 551.124 694.343 549.973 697.594 550.106Z" fill="#62D0AB"/>
<path d="M483 695C502.14 695 521.28 695 541 695C535.996 702.506 530.704 707.197 522 710C511.021 712.091 500.635 710.903 491.203 704.727C487.903 702.141 485.504 699.361 483 696C483 695.67 483 695.34 483 695Z" fill="#12B486"/>
<path d="M327 298C329.937 299.875 329.937 299.875 332 303C331.94 305.192 331.94 305.192 331.664 307.662C331.592 311.96 332.257 314.01 335.075 317.264C336.503 318.715 337.959 320.138 339.436 321.539C340.226 322.327 341.016 323.116 341.83 323.928C344.437 326.518 347.077 329.071 349.719 331.625C351.537 333.42 353.353 335.217 355.167 337.016C359.452 341.257 363.758 345.475 368.076 349.683C375.358 356.782 382.594 363.928 389.833 371.07C393.429 374.617 397.035 378.153 400.65 381.68C402.288 383.285 403.926 384.891 405.564 386.496C406.322 387.231 407.079 387.965 407.86 388.722C408.882 389.727 408.882 389.727 409.925 390.752C410.522 391.334 411.12 391.917 411.735 392.517C413 394 413 394 413 396C409.044 395.45 407.224 393.597 404.453 390.816C403.609 389.971 402.764 389.126 401.895 388.256C401.022 387.367 400.149 386.478 399.25 385.562C398.362 384.677 397.474 383.793 396.559 382.881C390 376.267 390 376.267 390 374C389.454 373.783 388.908 373.565 388.345 373.341C385.218 371.553 382.94 369.12 380.472 366.54C379.932 365.984 379.391 365.428 378.834 364.855C377.663 363.649 376.494 362.442 375.327 361.232C372.838 358.66 370.332 356.106 367.826 353.552C363.163 348.798 358.509 344.037 353.888 339.243C350.669 335.906 347.427 332.594 344.167 329.296C342.933 328.038 341.707 326.771 340.491 325.495C334.21 318.426 334.21 318.426 326.043 314.29C323.38 314.245 323.38 314.245 320.976 314.704C319 315 319 315 316.375 313.562C314.314 309.722 314.11 306.254 315 302C318.425 297.744 321.702 297.149 327 298Z" fill="#1059BA"/>
<path d="M407 615C407.495 616.485 407.495 616.485 408 618C406.948 619.019 406.948 619.019 405.874 620.059C399.255 626.475 392.663 632.917 386.096 639.386C382.719 642.711 379.333 646.026 375.926 649.32C372.636 652.501 369.371 655.706 366.122 658.929C364.881 660.152 363.63 661.367 362.371 662.572C355.369 668.803 355.369 668.803 351.356 676.915C351.352 679.551 351.352 679.551 351.868 681.917C352 684 352 684 350.625 686.033C347.526 689.071 345.711 689.976 341.312 690.125C335.971 688.311 335.971 688.311 334 685C333.336 681.203 333.248 677.788 334 674C336.562 671.25 336.562 671.25 340 670C343.687 670.25 343.687 670.25 347 671C350.099 671.322 350.099 671.322 352.212 669.142C353.072 668.272 353.933 667.402 354.819 666.505C355.296 666.027 355.773 665.549 356.264 665.057C357.845 663.469 359.414 661.871 360.984 660.273C362.084 659.166 363.184 658.059 364.284 656.954C367.188 654.033 370.083 651.103 372.976 648.172C377.59 643.499 382.216 638.838 386.844 634.178C388.452 632.556 390.057 630.93 391.661 629.303C396.601 624.306 401.563 619.458 407 615Z" fill="#41BEB1"/>
<path d="M230 498C232.938 500.313 232.938 500.313 235 503C235 503.99 235 504.98 235 506C274.93 506 314.86 506 356 506C356 506.66 356 507.32 356 508C316.07 508 276.14 508 235 508C234.34 509.65 233.68 511.3 233 513C231.313 514.875 231.313 514.875 229 516C225.176 515.932 222.792 515.508 219.563 513.438C217.742 510.598 217.366 508.339 217.555 504.973C219.019 498.488 224.074 496.942 230 498Z" fill="#1C82BA"/>
<path d="M615 628C615.436 628.375 615.871 628.75 616.32 629.137C616.916 629.648 617.511 630.16 618.125 630.688C619.082 631.511 619.082 631.511 620.059 632.352C621.747 633.785 623.461 635.176 625.188 636.562C628 639 628 639 629.875 641.375C631.692 643.619 633.354 645.22 635.543 647.061C640.463 651.32 644.927 655.964 649.434 660.652C651.234 662.499 653.035 664.345 654.838 666.189C657.652 669.071 660.46 671.956 663.243 674.867C665.949 677.695 668.69 680.487 671.434 683.277C672.259 684.152 673.084 685.027 673.934 685.928C678.072 690.295 678.072 690.295 683.489 692.46C685.872 692.463 685.872 692.463 688.068 692.099C690 692 690 692 693.062 694.125C695.36 697.534 695.755 698.975 695 703C692.922 706.741 691.675 707.791 687.562 709.062C683.267 708.987 681.948 708.035 679 705C677.797 702.595 678.074 701.448 678.299 698.797C678.326 695.197 677.952 693.303 675.608 690.546C674.501 689.422 673.368 688.322 672.217 687.243C671.602 686.632 670.988 686.021 670.355 685.391C668.33 683.388 666.275 681.417 664.219 679.445C662.804 678.055 661.392 676.663 659.981 675.268C656.272 671.61 652.537 667.978 648.796 664.352C642.8 658.535 636.843 652.679 630.887 646.822C628.801 644.778 626.704 642.745 624.605 640.714C623.331 639.47 622.057 638.226 620.783 636.981C620.194 636.417 619.605 635.853 618.998 635.271C617.607 633.904 616.295 632.458 615 631C615 630.01 615 629.02 615 628Z" fill="#45D58A"/>
<path d="M796.938 497.562C800.34 498.049 802.255 498.961 805 501C806.606 504.211 806.468 507.517 806 511C804.562 513.5 804.562 513.5 802 515C798.895 515.547 796.102 515.575 793 515C790.438 513.188 790.438 513.188 789 511C789 510.01 789 509.02 789 508C788.181 508.001 788.181 508.001 787.346 508.003C774.05 508.025 760.754 508.041 747.458 508.052C741.028 508.057 734.598 508.064 728.168 508.075C721.963 508.086 715.758 508.092 709.553 508.095C707.185 508.097 704.818 508.1 702.45 508.106C699.135 508.113 695.819 508.114 692.503 508.114C691.035 508.119 691.035 508.119 689.537 508.124C684.908 508.117 680.554 507.958 676 507C676 506.67 676 506.34 676 506C713.29 506 750.58 506 789 506C789.33 504.68 789.66 503.36 790 502C792.194 499.074 793.283 498.107 796.938 497.562Z" fill="#28C784"/>
<path d="M515 217C517.753 218.795 519.526 220.052 521 223C521.426 226.832 521.303 228.529 519.188 231.812C517 234 517 234 514 235C513.67 259.09 513.34 283.18 513 308C512.01 308.495 512.01 308.495 511 309C511 284.58 511 260.16 511 235C508.525 234.01 508.525 234.01 506 233C503.378 230.559 503.021 229.148 502.5 225.562C503 222 503 222 505.062 219.062C508.76 216.467 510.566 216.287 515 217Z" fill="#1778BD"/>
<path d="M618 500C618.33 500 618.66 500 619 500C619 501.98 619 503.96 619 506C620.455 505.894 620.455 505.894 621.939 505.785C631.619 505.11 641.247 504.861 650.953 504.886C652.473 504.887 653.992 504.887 655.512 504.886C659.581 504.886 663.65 504.892 667.719 504.899C671.993 504.905 676.266 504.905 680.54 504.907C688.607 504.91 696.674 504.918 704.741 504.928C713.936 504.939 723.131 504.945 732.326 504.95C751.217 504.96 770.109 504.978 789 505C789 505.33 789 505.66 789 506C753.69 506.33 718.38 506.66 682 507C706.75 507.33 731.5 507.66 757 508C757 508.33 757 508.66 757 509C742.568 509.024 728.136 509.041 713.704 509.052C707 509.057 700.296 509.064 693.592 509.075C687.102 509.086 680.611 509.092 674.121 509.095C671.666 509.097 669.211 509.1 666.756 509.106C650.478 509.141 634.259 508.789 618 508C618 505.36 618 502.72 618 500Z" fill="#E3F4F2"/>
<path d="M690.25 374.5C691.158 374.995 692.065 375.49 693 376C694.297 376.576 694.297 376.576 695.621 377.164C698 379 698 379 698.77 382.18C698.882 391.854 698.882 391.854 696.41 395.066C693.18 397.243 690.771 397.985 686.875 398.062C685.926 397.712 684.978 397.361 684 397C682.886 396.608 681.773 396.216 680.625 395.812C677.273 392.221 677.625 390.572 677.625 385.75C677.722 383.499 677.838 381.248 678 379C685.824 373.819 685.824 373.819 690.25 374.5Z" fill="#A0D3DA"/>
<path d="M371.859 434.977C373.597 435.943 375.301 436.967 377 438C377 442.29 377 446.58 377 451C368.709 456.074 368.709 456.074 365.406 455.73C361.664 454.595 359.794 453.859 357 451C356 446.483 355.945 442.509 357 438C361.197 432.857 366.125 431.965 371.859 434.977Z" fill="#B0D4E2"/>
<path d="M512 736C512.33 736 512.66 736 513 736C513.001 736.758 513.003 737.515 513.004 738.296C513.022 745.432 513.064 752.568 513.132 759.705C513.166 763.374 513.191 767.042 513.196 770.712C513.2 774.252 513.228 777.792 513.273 781.332C513.293 783.341 513.287 785.351 513.281 787.36C513.301 788.581 513.32 789.802 513.341 791.06C513.347 792.137 513.354 793.214 513.361 794.323C513.738 797.215 513.738 797.215 516.416 798.684C517.269 799.118 518.122 799.552 519 800C521 803 521 803 520.875 806.438C519.905 810.386 519.412 811.813 516 814C511.983 814.8 509.038 814.665 505.562 812.438C503.464 809.164 503 806.886 503 803C504.688 800.062 504.688 800.062 507 798C508.32 798 509.64 798 511 798C510.998 797.238 510.996 796.476 510.993 795.691C510.973 788.524 510.958 781.358 510.948 774.192C510.943 770.507 510.936 766.822 510.925 763.137C510.914 759.584 510.908 756.031 510.905 752.478C510.903 751.12 510.9 749.761 510.894 748.403C510.887 746.506 510.887 744.61 510.886 742.713C510.884 741.632 510.882 740.55 510.88 739.436C511 737 511 737 512 736Z" fill="#2BD969"/>
<path d="M690 339C691.666 338.957 693.334 338.959 695 339C696 340 696 340 696.187 342.438C696 345 696 345 694 347C693.225 347.125 692.449 347.25 691.65 347.379C688.295 348.165 687.009 349.502 684.593 351.937C683.337 353.189 683.337 353.189 682.056 354.466C681.166 355.373 680.276 356.28 679.359 357.215C678.437 358.141 677.514 359.067 676.563 360.021C674.614 361.978 672.671 363.941 670.733 365.91C668.248 368.435 665.752 370.949 663.251 373.459C660.867 375.853 658.488 378.253 656.109 380.652C655.211 381.558 654.314 382.463 653.389 383.396C652.564 384.233 651.739 385.07 650.89 385.933C650.161 386.672 649.432 387.411 648.681 388.172C646.933 389.904 646.933 389.904 646 392C645.34 392 644.68 392 644 392C644 392.66 644 393.32 644 394C642.374 395.382 640.707 396.719 639 398C638.34 397.67 637.68 397.34 637 397C637.634 396.377 638.269 395.753 638.923 395.111C644.909 389.225 650.884 383.326 656.845 377.414C659.91 374.375 662.979 371.341 666.06 368.318C669.034 365.398 671.995 362.466 674.949 359.525C676.076 358.408 677.208 357.294 678.343 356.185C679.938 354.627 681.516 353.054 683.091 351.476C683.993 350.586 684.894 349.695 685.823 348.778C688.421 345.463 689.106 343.072 690 339ZM633 401C633.66 401.66 634.32 402.32 635 403C634.01 402.67 633.02 402.34 632 402C632.33 401.67 632.66 401.34 633 401ZM631 403C631 403.99 631 404.98 631 406C629.02 406.99 629.02 406.99 627 408C627.062 409.114 627.124 410.228 627.187 411.375C627.126 412.571 627.064 413.768 627 415C623.55 417.3 622.054 417.431 618 417C615.686 413.53 615.49 412.082 616 408C617.5 406.063 617.5 406.063 620 405C621.941 405.152 621.941 405.152 624.062 405.5C627.87 406.438 627.87 406.438 630 404.563C630.33 404.047 630.66 403.531 631 403Z" fill="#DEEFF2"/>
<path d="M513 235C513.33 235 513.66 235 514 235C514.024 247.652 514.041 260.305 514.052 272.957C514.057 278.838 514.064 284.718 514.075 290.599C514.135 321.415 513.856 352.196 513 383C512.34 383 511.68 383 511 383C510.977 373.369 510.959 363.738 510.948 354.107C510.943 349.635 510.936 345.163 510.925 340.692C510.914 336.38 510.908 332.068 510.905 327.756C510.903 326.108 510.9 324.459 510.894 322.81C510.887 320.509 510.886 318.208 510.886 315.906C510.884 314.594 510.882 313.282 510.88 311.93C511 309 511 309 512 308C512.124 305.731 512.178 303.458 512.205 301.185C512.215 300.473 512.225 299.761 512.235 299.027C512.267 296.663 512.292 294.298 512.316 291.934C512.337 290.298 512.358 288.663 512.379 287.028C512.435 282.716 512.484 278.404 512.532 274.091C512.582 269.694 512.638 265.297 512.693 260.9C512.801 252.267 512.902 243.634 513 235Z" fill="#B2D8EA"/>
<path d="M684.75 691.625C688.653 691.67 689.781 691.851 693.125 694.125C695.349 697.535 695.748 699.01 695 703C692.922 706.741 691.675 707.791 687.562 709.062C683.267 708.987 681.948 708.035 679 705C677.699 702.399 678.069 700.813 678.375 697.938C678.465 697.039 678.555 696.141 678.648 695.215C679.276 691.263 681.089 691.766 684.75 691.625Z" fill="#2FD767"/>
<path d="M687.938 315.812C691 316 691 316 693 318C693.25 320.5 693.25 320.5 693 323C691 325 691 325 687.375 325.125C686.261 325.084 685.148 325.043 684 325C683.74 325.585 683.481 326.17 683.213 326.772C681.914 329.159 680.51 330.733 678.586 332.645C677.907 333.322 677.227 333.999 676.527 334.697C675.817 335.395 675.107 336.093 674.375 336.812C673.688 337.499 673.001 338.185 672.293 338.893C668.285 342.866 664.16 346.638 659.888 350.323C656.43 353.394 653.253 356.743 650.051 360.076C648.736 361.42 647.372 362.715 646 364C645.34 364 644.68 364 644 364C645.395 360.835 647.022 358.753 649.5 356.352C650.214 355.654 650.928 354.957 651.664 354.238C652.435 353.493 653.206 352.748 654 351.98C655.625 350.385 657.25 348.789 658.875 347.193C661.438 344.687 664.004 342.184 666.578 339.689C669.063 337.277 671.533 334.849 674 332.418C675.156 331.31 675.156 331.31 676.336 330.179C680.637 325.919 682.892 322.981 684 317C685 316 685 316 687.938 315.812Z" fill="#5AB8CA"/>
<path d="M359 341C365.345 346.242 371.149 351.985 376.965 357.797C378.009 358.837 379.052 359.878 380.096 360.918C382.269 363.085 384.439 365.253 386.609 367.423C389.393 370.208 392.185 372.986 394.979 375.762C397.129 377.902 399.275 380.046 401.42 382.191C402.448 383.218 403.478 384.244 404.51 385.268C405.943 386.692 407.37 388.123 408.797 389.554C409.61 390.366 410.424 391.179 411.263 392.016C413 394 413 394 413 396C409.044 395.45 407.224 393.597 404.453 390.816C403.609 389.971 402.764 389.126 401.895 388.256C401.022 387.367 400.149 386.478 399.25 385.562C398.362 384.678 397.474 383.793 396.559 382.881C390 376.267 390 376.267 390 374C389.402 373.728 388.805 373.455 388.189 373.175C386.05 372.027 384.674 370.917 382.976 369.203C382.415 368.642 381.855 368.082 381.278 367.504C380.686 366.902 380.094 366.3 379.484 365.68C378.869 365.061 378.253 364.442 377.618 363.805C375.657 361.833 373.704 359.854 371.75 357.875C370.42 356.535 369.089 355.195 367.758 353.855C364.5 350.576 361.248 347.289 358 344C358.33 343.01 358.66 342.02 359 341Z" fill="#5094CE"/>
<path d="M695.738 504.902C698.444 504.905 701.149 504.906 703.854 504.907C710.186 504.91 716.517 504.918 722.849 504.928C730.073 504.939 737.297 504.945 744.521 504.95C759.347 504.96 774.174 504.978 789 505C789 505.33 789 505.66 789 506C753.69 506.33 718.38 506.66 682 507C682 507.33 682 507.66 682 508C677.837 508.025 673.675 508.043 669.512 508.055C668.098 508.06 666.684 508.067 665.27 508.075C663.229 508.088 661.189 508.093 659.148 508.098C657.31 508.105 657.31 508.105 655.435 508.114C652.196 508.006 649.178 507.615 646 507C646 506.67 646 506.34 646 506C662.587 505.003 679.125 504.868 695.738 504.902Z" fill="#99E2D0"/>
<path d="M346 673C348.375 674.625 348.375 674.625 350 677C350.5 680 350.5 680 350 683C348.069 685.647 346.585 686.76 343.562 688C341 688 341 688 338.188 686.562C335.908 683.893 335.609 683.264 335.438 679.937C336 676 336 676 337.625 674C340.703 672.704 342.689 672.517 346 673Z" fill="#F0F7F6"/>
<path d="M308 411C308 413.97 308 416.94 308 420C305.313 421.625 305.313 421.625 302 423C298.768 422.173 296.79 420.86 294 419C293.358 413.941 293.358 413.941 294 411C298.848 406.429 302.588 408.294 308 411Z" fill="#5698D8"/>
<path d="M514 687C513.01 688.98 512.02 690.96 511 693C520.57 693.33 530.14 693.66 540 694C540 694.33 540 694.66 540 695C521.19 695 502.38 695 483 695C483 694.67 483 694.34 483 694C486.465 693.505 486.465 693.505 490 693C489.01 692.01 488.02 691.02 487 690C490.374 689.493 493.749 688.996 497.125 688.5C498.076 688.357 499.028 688.214 500.008 688.066C504.712 687.38 509.23 686.807 514 687Z" fill="#CFECE3"/>
<path d="M643 363C643.66 363.66 644.32 364.32 645 365C631.14 378.86 617.28 392.72 603 407C602.34 406.67 601.68 406.34 601 406C603.989 402.656 606.991 399.326 610 396C610.444 395.508 610.888 395.015 611.346 394.508C617.547 387.654 623.914 380.986 630.438 374.438C631.112 373.759 631.786 373.08 632.481 372.38C635.842 369.03 639.208 365.871 643 363Z" fill="#A2CFE0"/>
<path d="M611.875 716.312C613.422 717.148 613.422 717.148 615 718C615.288 721.051 615.431 723.958 615 727C612.813 729.125 612.813 729.125 610 730C606.466 729.747 604.997 728.998 602 727C601.707 724.836 601.707 724.836 601.813 722.375C601.84 721.558 601.867 720.74 601.895 719.898C601.929 719.272 601.964 718.645 602 718C605.729 715.544 607.767 714.505 611.875 716.312Z" fill="#57DC88"/>
<path d="M331.625 338.875C332.409 338.916 333.192 338.957 334 339C334.281 339.933 334.563 340.867 334.853 341.828C337.482 347.916 342.696 352.186 347.355 356.746C348.383 357.767 349.41 358.788 350.437 359.81C353.126 362.484 355.826 365.145 358.53 367.805C361.292 370.526 364.043 373.258 366.795 375.99C372.186 381.338 377.589 386.673 383 392C380 392 380 392 377.352 389.693C376.292 388.632 375.24 387.563 374.195 386.488C373.634 385.923 373.073 385.358 372.495 384.775C370.698 382.961 368.911 381.137 367.125 379.312C365.929 378.102 364.732 376.891 363.535 375.682C361.321 373.443 359.112 371.201 356.907 368.954C355.057 367.07 353.196 365.198 351.327 363.332C349.419 361.42 347.547 359.486 345.695 357.52C344.505 356.284 343.315 355.048 342.125 353.812C341.538 353.184 340.952 352.556 340.348 351.908C336.416 347.869 333.565 346.046 328 345C327.375 343.125 327.375 343.125 327 341C329 339 329 339 331.625 338.875Z" fill="#D8E9F0"/>
<path d="M577 591C587.171 599.553 596.806 608.657 606.312 617.938C607.18 618.767 608.047 619.596 608.94 620.45C609.74 621.239 610.54 622.027 611.363 622.84C612.088 623.545 612.813 624.25 613.56 624.976C614.035 625.644 614.51 626.312 615 627C614.59 629.126 614.59 629.126 614 631C608.72 625.796 603.452 620.581 598.192 615.357C596.4 613.58 594.605 611.806 592.808 610.034C590.23 607.492 587.661 604.941 585.094 602.387C584.284 601.593 583.475 600.799 582.641 599.981C581.9 599.241 581.16 598.5 580.396 597.737C579.739 597.086 579.082 596.436 578.405 595.765C577 594 577 594 577 591Z" fill="#CAEAEA"/>
<path d="M507 710C509.97 710.495 509.97 710.495 513 711C513.029 715.146 513.047 719.292 513.062 723.438C513.071 724.622 513.079 725.806 513.088 727.025C513.091 728.15 513.094 729.275 513.098 730.434C513.103 731.476 513.108 732.518 513.114 733.592C513 736 513 736 512 737C511.876 738.902 511.822 740.808 511.795 742.713C511.775 743.934 511.755 745.156 511.734 746.414C511.717 747.756 511.7 749.099 511.684 750.441C511.663 751.808 511.642 753.174 511.621 754.54C511.565 758.142 511.516 761.744 511.468 765.346C511.418 769.019 511.362 772.692 511.307 776.365C511.199 783.577 511.098 790.788 511 798C510.34 797.67 509.68 797.34 509 797C509.019 795.915 509.019 795.915 509.038 794.808C509.158 787.869 509.275 780.931 509.391 773.992C509.451 770.428 509.511 766.864 509.573 763.3C509.875 745.866 510.082 728.437 510 711C509.01 710.67 508.02 710.34 507 710Z" fill="#A4EBC4"/>
<path d="M371 623C371.99 623.66 372.98 624.32 374 625C374.293 627.164 374.293 627.164 374.188 629.625C374.16 630.442 374.133 631.259 374.105 632.102C374.071 632.728 374.036 633.354 374 634C370.328 636.039 370.328 636.039 367.375 635.687C365 635 365 635 363 634C362.919 632.543 362.861 631.084 362.812 629.625C362.778 628.813 362.743 628.001 362.707 627.164C362.804 626.45 362.9 625.736 363 625C366.246 622.836 367.243 622.624 371 623Z" fill="#72C7C2"/>
<path d="M330 311C330.707 311.709 331.413 312.418 332.141 313.148C334.489 315.496 336.854 317.825 339.226 320.149C341.366 322.249 343.499 324.358 345.631 326.466C346.758 327.578 347.888 328.688 349.021 329.794C350.663 331.4 352.295 333.015 353.926 334.633C354.435 335.127 354.944 335.62 355.469 336.129C356.704 337.364 357.86 338.677 359 340C359 340.99 359 341.98 359 343C354.834 341.367 352.063 338.317 348.992 335.188C348.425 334.618 347.859 334.048 347.275 333.462C345.47 331.646 343.673 329.823 341.875 328C340.658 326.773 339.441 325.546 338.223 324.32C335.996 322.077 333.771 319.831 331.55 317.582C330.038 316.051 328.522 314.522 327 313C327.99 312.34 328.98 311.68 330 311Z" fill="#317EC5"/>
<path d="M407 615C407.33 615.99 407.66 616.98 408 618C399.09 626.91 390.18 635.82 381 645C380.01 644.34 379.02 643.68 378 643C381.002 639.973 384.007 636.95 387.015 633.93C388.035 632.905 389.054 631.879 390.073 630.852C395.536 625.343 400.999 619.932 407 615Z" fill="#59C4BE"/>
<path d="M615 628C615.436 628.375 615.871 628.75 616.32 629.137C616.916 629.648 617.511 630.16 618.125 630.688C619.082 631.511 619.082 631.511 620.059 632.352C621.747 633.785 623.461 635.176 625.188 636.562C628 639 628 639 629.875 641.375C632.29 644.358 634.983 646.667 637.895 649.152C641.083 651.95 644.044 654.961 647 658C646.01 658.66 645.02 659.32 644 660C639.86 655.934 635.731 651.859 631.61 647.775C630.206 646.386 628.799 645 627.39 643.616C625.368 641.63 623.355 639.635 621.344 637.637C620.709 637.018 620.075 636.399 619.422 635.761C618.841 635.181 618.26 634.601 617.662 634.003C617.147 633.494 616.632 632.986 616.101 632.462C615 631 615 631 615 628Z" fill="#5CD3A6"/>
<path d="M618 500C618.33 500 618.66 500 619 500C619 501.98 619 503.96 619 506C619.784 505.928 620.567 505.856 621.375 505.781C636.555 504.604 651.786 504.91 667 505C667 505.33 667 505.66 667 506C662.05 506.33 657.1 506.66 652 507C652 507.33 652 507.66 652 508C640.78 508 629.56 508 618 508C618 505.36 618 502.72 618 500Z" fill="#CCEAEB"/>
<path d="M478 693C478.33 693 478.66 693 479 693C479.006 693.595 479.012 694.189 479.018 694.802C479.082 700.983 479.166 707.163 479.262 713.343C479.296 715.651 479.324 717.958 479.346 720.266C479.38 723.58 479.432 726.893 479.488 730.207C479.495 731.241 479.501 732.276 479.508 733.342C479.527 734.303 479.547 735.263 479.568 736.253C479.579 737.099 479.59 737.945 479.601 738.817C480.085 741.463 481.061 742.222 483 744C482.749 746.137 482.541 747.459 481 749C478.5 749.125 478.5 749.125 476 749C475 748 475 748 474.938 745.438C474.958 744.633 474.979 743.829 475 743C476.485 742.505 476.485 742.505 478 742C478 725.83 478 709.66 478 693Z" fill="#B2E9D2"/>
<path d="M437 587C435.362 591.196 432.267 593.987 429.117 597.078C428.543 597.65 427.969 598.221 427.377 598.81C425.548 600.628 423.711 602.439 421.875 604.25C420.631 605.484 419.388 606.718 418.145 607.953C415.102 610.974 412.052 613.989 409 617C408.414 615.118 408.414 615.118 408 613C409.371 611.105 409.371 611.105 411.438 609.188C412.183 608.486 412.928 607.785 413.695 607.062C416.361 604.677 419.058 602.332 421.777 600.008C425.104 597.003 428.218 593.791 431.32 590.555C434.785 587 434.785 587 437 587Z" fill="#ABDCDF"/>
<path d="M347 671C347.66 671.99 348.32 672.98 349 674C347 674 344.999 673.958 343 673.875C339.816 673.747 339.816 673.747 337 676C336.266 681.447 336.266 681.447 338.625 686.062C341.748 687.295 343.79 686.802 347 686C347.33 686.66 347.66 687.32 348 688C345 690 345 690 341.562 689.875C338 689 338 689 335.562 687.625C332.99 683.304 333.033 678.873 334 674C338.063 669.64 341.386 669.381 347 671Z" fill="#3BC2B6"/>
<path d="M392 374C397.03 378.221 401.792 382.61 406.438 387.25C407.074 387.874 407.71 388.498 408.365 389.141C409.265 390.038 409.265 390.038 410.184 390.953C410.726 391.491 411.268 392.029 411.826 392.583C413 394 413 394 413 396C409.119 395.444 407.372 393.723 404.672 390.965C403.873 390.156 403.073 389.347 402.25 388.514C401.425 387.664 400.6 386.813 399.75 385.938C398.91 385.083 398.069 384.229 397.203 383.35C395.129 381.24 393.061 379.123 391 377C391.33 376.01 391.66 375.02 392 374Z" fill="#A1CBE3"/>
<path d="M212 688C211.113 688.371 210.226 688.743 209.312 689.125C205.003 691.564 202.246 694.507 200 699C199.882 700.511 199.823 702.026 199.795 703.542C199.775 704.482 199.755 705.423 199.734 706.392C199.717 707.41 199.701 708.428 199.684 709.477C199.663 710.517 199.642 711.557 199.621 712.629C199.555 715.961 199.496 719.293 199.437 722.625C199.394 724.88 199.351 727.135 199.307 729.391C199.199 734.927 199.098 740.463 199 746C198.67 746 198.34 746 198 746C197.873 739.15 197.785 732.3 197.725 725.449C197.7 723.121 197.666 720.792 197.623 718.463C197.562 715.109 197.534 711.757 197.512 708.402C197.486 707.367 197.46 706.331 197.433 705.264C197.431 698.476 198.419 695.073 203 690C206.271 687.447 208.048 686.39 212 688Z" fill="#089991"/>
<path d="M624 381C624 385.465 621.935 387.958 619.007 391.22C618.269 391.948 617.53 392.676 616.77 393.426C615.967 394.222 615.165 395.018 614.338 395.838C613.505 396.655 612.671 397.471 611.812 398.312C610.968 399.148 610.123 399.984 609.252 400.846C607.172 402.902 605.088 404.953 603 407C602.34 406.67 601.68 406.34 601 406C606.102 400.292 611.245 394.626 616.438 389C617.217 388.155 617.217 388.155 618.013 387.292C619.98 385.164 621.95 383.05 624 381Z" fill="#BADBE8"/>
<path d="M687.938 315.812C691 316 691 316 693 318C693.25 320.5 693.25 320.5 693 323C691 325 691 325 688.563 325.312C686 325 686 325 684.125 323.812C683 322 683 322 683.25 319.375C684.302 316.045 684.302 316.045 687.938 315.812Z" fill="#229BB5"/>
<path d="M598 613C602.935 613.893 605.381 616.866 608.812 620.312C609.423 620.895 610.033 621.477 610.662 622.076C611.234 622.645 611.806 623.214 612.395 623.801C612.919 624.318 613.443 624.835 613.984 625.368C615 627 615 627 614.663 629.2C614.444 629.794 614.225 630.388 614 631C611.325 628.383 608.662 625.755 606 623.125C605.237 622.379 604.474 621.632 603.688 620.863C602.966 620.148 602.244 619.432 601.5 618.695C600.83 618.035 600.159 617.376 599.469 616.696C598 615 598 615 598 613Z" fill="#98DCD2"/>
<path d="M358 666C356.9 668.566 356.127 669.903 353.875 671.625C351.249 674.952 351.813 677.552 352.152 681.66C352 684 352 684 350.629 685.809C349 687 349 687 347 687C347.33 686.464 347.66 685.928 348 685.375C349.672 681.403 349.343 678.029 348 674C349.328 671.957 349.328 671.957 351.25 669.812C351.874 669.097 352.498 668.382 353.141 667.645C355 666 355 666 358 666Z" fill="#25B9A7"/>
<path d="M507 710C509.97 710.495 509.97 710.495 513 711C513 719.25 513 727.5 513 736C512.34 736.33 511.68 736.66 511 737C510.67 728.42 510.34 719.84 510 711C509.01 710.67 508.02 710.34 507 710Z" fill="#60DFA6"/>
<path d="M376 360C380.61 360.856 383.071 363.627 386.25 366.875C386.804 367.418 387.359 367.96 387.93 368.52C392 372.62 392 372.62 392 376C391.34 376 390.68 376 390 376C390 375.34 390 374.68 390 374C389.172 373.66 389.172 373.66 388.328 373.312C385.313 371.613 383.188 369.452 380.75 367C379.858 366.113 378.966 365.226 378.047 364.312C376 362 376 362 376 360Z" fill="#73AFD9"/>
<path d="M330 311C334.333 315.333 338.667 319.667 343 324C342.01 325.485 342.01 325.485 341 327C336.333 322.333 331.667 317.667 327 313C327.99 312.34 328.98 311.68 330 311Z" fill="#216FBF"/>
<path d="M487.188 690.938C489.075 690.968 489.075 690.968 491 691C491 691.33 491 691.66 491 692C497.27 692.33 503.54 692.66 510 693C510 693.33 510 693.66 510 694C501.09 694 492.18 694 483 694C482.67 694.66 482.34 695.32 482 696C481.34 696 480.68 696 480 696C480 694.68 480 693.36 480 692C482.751 691.083 484.359 690.891 487.188 690.938Z" fill="#EAF3F1"/>
<path d="M666 680C670.317 680.474 672.336 683.034 675.25 686.062C676.142 686.982 677.034 687.901 677.953 688.848C678.629 689.558 679.304 690.268 680 691C679.67 691.99 679.34 692.98 679 694C674.445 690.2 670.047 686.343 666 682C666 681.34 666 680.68 666 680Z" fill="#43D480"/>
<path d="M478.438 741.812C481 742 481 742 483 744C482.464 747.536 482.464 747.536 481 749C478.5 749.125 478.5 749.125 476 749C475 748 475 748 474.875 745.5C475.042 742.17 475.122 742.068 478.438 741.812Z" fill="#5ADF94"/>
<path d="M683 322C683.99 322.99 684.98 323.98 686 325C685.34 325 684.68 325 684 325C683.745 325.583 683.49 326.165 683.227 326.766C681.883 329.214 680.382 330.817 678.375 332.75C677.428 333.67 677.428 333.67 676.461 334.609C675.979 335.068 675.497 335.527 675 336C674.01 335.34 673.02 334.68 672 334C672.71 333.301 673.421 332.603 674.152 331.883C675.071 330.973 675.991 330.063 676.938 329.125C678.312 327.768 678.312 327.768 679.715 326.383C682.012 324.223 682.012 324.223 683 322Z" fill="#41AEC3"/>
<path d="M690 339C691.666 338.957 693.334 338.959 695 339C696 340 696 340 696.188 342.438C696 345 696 345 694 347C691.875 346.625 691.875 346.625 690 346C688.875 341.25 688.875 341.25 690 339Z" fill="#D2EBEC"/>
<path d="M331.625 338.875C332.409 338.916 333.192 338.957 334 339C334.625 341.375 334.625 341.375 335 344C334.34 344.66 333.68 345.32 333 346C330.375 345.625 330.375 345.625 328 345C327.375 343.125 327.375 343.125 327 341C329 339 329 339 331.625 338.875Z" fill="#C5DEEB"/>
<path d="M407 615C407.33 615.99 407.66 616.98 408 618C406.923 619.131 405.838 620.255 404.75 621.375C404.147 622.001 403.543 622.628 402.922 623.273C401.014 624.987 399.291 625.892 397 627C395.295 628.627 393.621 630.289 392 632C391.34 631.67 390.68 631.34 390 631C395.482 625.419 400.967 619.984 407 615Z" fill="#81CECE"/>
<path d="M413 395C417.11 398.36 420.946 401.603 424 406C424 406.66 424 407.32 424 408C420.319 406.464 418.012 404.218 415.25 401.375C414.451 400.558 413.652 399.74 412.828 398.898C412.225 398.272 411.622 397.645 411 397C411.66 396.34 412.32 395.68 413 395Z" fill="#CAE2ED"/>
<path d="M437 587C435.341 591.325 432.129 594.094 428.875 597.25C428.312 597.804 427.748 598.359 427.168 598.93C425.783 600.291 424.392 601.646 423 603C423 598.921 424.567 597.943 427.312 595C428.513 593.701 428.513 593.701 429.738 592.375C430.485 591.591 431.231 590.808 432 590C432.55 589.402 433.101 588.804 433.668 588.188C435 587 435 587 437 587Z" fill="#D4ECF0"/>
<path d="M656 350C656.66 350.66 657.32 351.32 658 352C656.048 354.006 654.089 356.005 652.125 358C651.569 358.572 651.014 359.145 650.441 359.734C648.999 361.195 647.503 362.601 646 364C645.34 364 644.68 364 644 364C645.587 360.097 648.134 357.665 651.125 354.75C652.035 353.858 652.945 352.966 653.883 352.047C654.581 351.371 655.28 350.696 656 350Z" fill="#62B8CD"/>
<path d="M701 198C699.561 201.387 697.779 203.359 695 205.75C693.948 206.67 693.948 206.67 692.875 207.609C691 209 691 209 689 209C690.174 204.011 693.183 202.013 697.125 199.137C699 198 699 198 701 198Z" fill="#1786AE"/>
<path d="M335 677C335.33 677 335.66 677 336 677C336.083 678.093 336.165 679.186 336.25 680.312C336.683 683.948 336.683 683.948 338.688 686C341.78 687.337 343.788 686.803 347 686C347.33 686.66 347.66 687.32 348 688C345 690 345 690 341.5 689.812C337.99 688.998 337.06 688.776 335 686C334.707 683.738 334.707 683.738 334.813 681.312C334.84 680.504 334.867 679.696 334.895 678.863C334.929 678.248 334.964 677.634 335 677Z" fill="#47CAB6"/>
<path d="M392 374C399.483 380.15 399.483 380.15 402 384C401.34 384.66 400.68 385.32 400 386C397.03 383.03 394.06 380.06 391 377C391.33 376.01 391.66 375.02 392 374Z" fill="#95C2E0"/>
<path d="M381 393C384.301 393.581 385.911 394.549 388.234 396.941C389.095 397.816 389.095 397.816 389.973 398.709C390.559 399.321 391.146 399.932 391.75 400.562C392.352 401.178 392.954 401.794 393.574 402.428C395.056 403.945 396.529 405.472 398 407C397.67 407.66 397.34 408.32 397 409C396.278 408.257 395.556 407.515 394.812 406.75C392.13 404.036 392.13 404.036 389.5 402C382.833 396.667 382.833 396.667 381 393Z" fill="#E6F2F5"/>
<path d="M602 403C602 406.961 600.911 408.943 598.344 411.922C597.735 412.525 597.127 413.128 596.5 413.75C595.587 414.67 595.587 414.67 594.656 415.609C593 417 593 417 591 417C592.578 413.29 594.907 410.701 597.625 407.75C598.442 406.858 599.26 405.966 600.102 405.047C600.728 404.371 601.355 403.696 602 403Z" fill="#E8F3F8"/>
<path d="M368 350C375.483 356.15 375.483 356.15 378 360C377.01 360.33 376.02 360.66 375 361C373.821 359.93 372.657 358.843 371.5 357.75C370.85 357.147 370.201 356.543 369.531 355.922C368 354 368 354 368 350Z" fill="#61A1D4"/>
<path d="M615 628C615.436 628.375 615.871 628.75 616.32 629.137C620.186 632.459 624.077 635.746 628 639C626.297 639.766 626.297 639.766 624 640C621.641 638.234 621.641 638.234 619.25 635.75C618.451 634.94 617.652 634.131 616.828 633.297C615 631 615 631 615 628Z" fill="#70D4BD"/>
<path d="M399 624C399 627 399 627 397.391 628.973C396.684 629.662 395.978 630.352 395.25 631.062C394.554 631.755 393.858 632.447 393.141 633.16C390.052 635.815 388.103 637 384 637C387.143 633.677 390.103 631.338 394 629C395.704 627.372 397.38 625.712 399 624Z" fill="#6DC8C5"/>
<path d="M598 613C601.599 613.556 602.999 614.749 605.25 617.562C606.031 618.523 606.031 618.523 606.828 619.504C607.215 619.998 607.602 620.491 608 621C607.01 621.33 606.02 621.66 605 622C603.827 620.881 602.662 619.755 601.5 618.625C600.85 617.999 600.201 617.372 599.531 616.727C598 615 598 615 598 613Z" fill="#AAE0DB"/>
<path d="M210.188 687.375C211.085 687.684 211.085 687.684 212 688C211.113 688.371 210.226 688.742 209.312 689.125C205.003 691.564 202.246 694.507 200 699C199.34 699 198.68 699 198 699C199.546 694.08 204.272 686.361 210.188 687.375Z" fill="#1B9FA0"/>
<path d="M350 674C352 676 352 676 352.312 679.938C352.248 682.67 352.2 683.709 350.625 686C349 687 349 687 347 687C347.33 686.464 347.66 685.928 348 685.375C349.241 682.428 349.207 680.171 349 677C348.67 676.34 348.34 675.68 348 675C348.66 674.67 349.32 674.34 350 674Z" fill="#29CBAD"/>
<path d="M643 363C643.66 363.66 644.32 364.32 645 365C641.37 368.63 637.74 372.26 634 376C633.34 375.67 632.68 375.34 632 375C635.63 371.04 639.26 367.08 643 363Z" fill="#89C5D8"/>
<path d="M609 397C609.99 397.33 610.98 397.66 612 398C609.03 400.97 606.06 403.94 603 407C602.34 406.67 601.68 406.34 601 406C603.64 403.03 606.28 400.06 609 397Z" fill="#D0E6EF"/>
<path d="M507 710C509.97 710.495 509.97 710.495 513 711C513 713.64 513 716.28 513 719C512.01 719.495 512.01 719.495 511 720C510.67 717.03 510.34 714.06 510 711C509.01 710.67 508.02 710.34 507 710Z" fill="#90E5C4"/>
<path d="M424 406C426.667 408.667 429.333 411.333 432 414C431.67 414.66 431.34 415.32 431 416C428.36 413.69 425.72 411.38 423 409C423.33 408.01 423.66 407.02 424 406Z" fill="#E0EFF5"/>
<path d="M674 687C676.622 688.049 677.794 688.649 679.25 691.125C679.498 691.744 679.745 692.363 680 693C677 693 677 693 675.312 691.688C674 690 674 690 674 687Z" fill="#3BD576"/>
<path d="M444 579C444 582 444 582 442.469 583.605C441.819 584.128 441.169 584.65 440.5 585.188C439.85 585.717 439.201 586.247 438.531 586.793C438.026 587.191 437.521 587.59 437 588C437 585 437 585 438.531 583.395C439.506 582.611 439.506 582.611 440.5 581.812C441.15 581.283 441.799 580.753 442.469 580.207C442.974 579.809 443.479 579.41 444 579Z" fill="#E6F3F7"/>
<path d="M664 344C662.715 346.867 661.429 348.976 659 351C658.34 351 657.68 351 657 351C660.138 344 660.138 344 664 344Z" fill="#47B1C5"/>
<path d="M531 695C534.3 695 537.6 695 541 695C539.515 697.475 539.515 697.475 538 700C537.67 698.68 537.34 697.36 537 696C535.02 696 533.04 696 531 696C531 695.67 531 695.34 531 695Z" fill="#21C590"/>
<path d="M810 807C810.66 807 811.32 807 812 807C810.607 810.367 809.021 811.986 806 814C806 813.01 806 812.02 806 811C807.32 810.34 808.64 809.68 810 809C810 808.34 810 807.68 810 807Z" fill="#38E167"/>
<path d="M427 595C427.66 595 428.32 595 429 595C427.509 598.795 425.243 600.61 422 603C423.369 600.05 424.878 597.475 427 595Z" fill="#C2E4E9"/>
<path d="M408 391C409.938 391.812 409.938 391.812 412 393C412.33 393.99 412.66 394.98 413 396C411.125 395.688 411.125 395.688 409 395C408.34 394.01 407.68 393.02 407 392C407.33 391.67 407.66 391.34 408 391Z" fill="#B3D5E8"/>
</svg>
